<svg id="Bold" enable-background="new 0 0 24 24" height="512" viewBox="0 0 24 24" width="512" xmlns="http://www.w3.org/2000/svg"><g><path d="m21.59 7.92c-.27-.13-.61-.09-.84.11l-3.68 3.26-4.42-7.91c-.26-.47-1.04-.47-1.3 0l-4.42 7.91-3.68-3.26c-.23-.2-.56-.24-.84-.11-.27.14-.43.44-.41.74l.81 8.84h18.38l.81-8.84c.02-.3-.14-.6-.41-.74zm-7.73 5.02-1.25 1.75c-.14.19-.37.31-.61.31s-.47-.12-.61-.31l-1.25-1.75c-.19-.26-.19-.62 0-.88l1.25-1.75c.28-.39.94-.39 1.22 0l1.25 1.75c.19.26.19.62 0 .88z"/></g><g><path d="m12 4c-1.103 0-2-.897-2-2s.897-2 2-2 2 .897 2 2-.897 2-2 2z"/></g><g><path d="m22 9c-1.103 0-2-.897-2-2s.897-2 2-2 2 .897 2 2-.897 2-2 2z"/></g><g><path d="m2 9c-1.103 0-2-.897-2-2s.897-2 2-2 2 .897 2 2-.897 2-2 2z"/></g><g><path d="m21.5 24h-19c-1.378 0-2.5-1.122-2.5-2.5s1.122-2.5 2.5-2.5h19c1.378 0 2.5 1.122 2.5 2.5s-1.122 2.5-2.5 2.5z"/></g></svg>