<?xml version="1.0" encoding="UTF-8" standalone="no"?>
<!-- Generator: Adobe Illustrator 19.0.0, SVG Export Plug-In . SVG Version: 6.00 Build 0)  -->

<svg
   version="1.1"
   id="Capa_1"
   x="0px"
   y="0px"
   viewBox="0 0 236.245 236.245"
   style="enable-background:new 0 0 236.245 236.245;"
   xml:space="preserve"
   sodipodi:docname="homie.svg"
   inkscape:version="1.1.2 (0a00cf5339, 2022-02-04, custom)"
   xmlns:inkscape="http://www.inkscape.org/namespaces/inkscape"
   xmlns:sodipodi="http://sodipodi.sourceforge.net/DTD/sodipodi-0.dtd"
   xmlns="http://www.w3.org/2000/svg"
   xmlns:svg="http://www.w3.org/2000/svg"><defs
   id="defs975" /><sodipodi:namedview
   id="namedview973"
   pagecolor="#ffffff"
   bordercolor="#666666"
   borderopacity="1.0"
   inkscape:pageshadow="2"
   inkscape:pageopacity="0.0"
   inkscape:pagecheckerboard="0"
   showgrid="false"
   inkscape:zoom="1.6846917"
   inkscape:cx="-22.852845"
   inkscape:cy="145.4272"
   inkscape:window-width="1920"
   inkscape:window-height="1011"
   inkscape:window-x="0"
   inkscape:window-y="0"
   inkscape:window-maximized="1"
   inkscape:current-layer="Capa_1" />
<g
   id="g940"
   style="fill:#fffafa;fill-opacity:1">
	<path
   d="M194.838,135.847c-2.133-22.22-15.158-25.655-21.474-25.995c-2.108-0.113-3.979-1.308-5.003-3.153   c-5.237-9.439-13.203-11.707-19.649-11.707c-0.829,0-1.634,0.038-2.404,0.102c-0.169,0.014-0.337,0.021-0.502,0.021   c-3.804,0-6.652-3.66-5.688-7.434c5.181-20.277,18.426-66.731,18.426-66.731C162.669,8.595,152.587,0.001,142.716,0   c-6.135,0-12.189,3.319-14.701,11.119l-18.587,61.864c-1.253,4.17-4.841,6.267-8.43,6.267c-3.528,0-7.057-2.026-8.37-6.1   L74.875,18.064c-2.114-8.786-8.794-12.64-15.552-12.64c-9.626,0-19.412,7.816-16.398,20.332l19.132,79.563   c0.764,3.175-1.168,6.354-4.329,7.171c-6.207,1.604-15.255,6.709-16.433,22.781c-1.439,19.636,27.503,57.831,33.032,65.885   c0.594,0.865,0.948,1.868,1.029,2.915l2.936,26.793c0.24,3.105,2.83,5.381,5.945,5.381h72.49c3.139,0,5.74-2.311,5.95-5.443   l2.37-24.415c0.071-1.064,0.422-2.054,1.025-2.934C171.323,195.79,197.294,161.439,194.838,135.847z"
   id="path938"
   style="fill:#fffafa;fill-opacity:1" />
</g>
<g
   id="g942">
</g>
<g
   id="g944">
</g>
<g
   id="g946">
</g>
<g
   id="g948">
</g>
<g
   id="g950">
</g>
<g
   id="g952">
</g>
<g
   id="g954">
</g>
<g
   id="g956">
</g>
<g
   id="g958">
</g>
<g
   id="g960">
</g>
<g
   id="g962">
</g>
<g
   id="g964">
</g>
<g
   id="g966">
</g>
<g
   id="g968">
</g>
<g
   id="g970">
</g>
</svg>
