<?xml version="1.0" encoding="UTF-8" standalone="no"?>
<svg
   id="Capa_1"
   enable-background="new 0 0 512.001 512.001"
   height="512"
   viewBox="0 0 512.001 512.001"
   width="512"
   version="1.1"
   sodipodi:docname="likes.svg"
   inkscape:version="1.2 (dc2aeda, 2022-05-15)"
   xmlns:inkscape="http://www.inkscape.org/namespaces/inkscape"
   xmlns:sodipodi="http://sodipodi.sourceforge.net/DTD/sodipodi-0.dtd"
   xmlns:xlink="http://www.w3.org/1999/xlink"
   xmlns="http://www.w3.org/2000/svg"
   xmlns:svg="http://www.w3.org/2000/svg">
  <defs
     id="defs1062">
    <linearGradient
       inkscape:collect="always"
       id="linearGradient5605">
      <stop
         style="stop-color:#ff8975;stop-opacity:1;"
         offset="0"
         id="stop5601" />
      <stop
         style="stop-color:#e9658b;stop-opacity:1;"
         offset="1"
         id="stop5603" />
    </linearGradient>
    <linearGradient
       inkscape:collect="always"
       xlink:href="#linearGradient5605"
       id="linearGradient5607"
       x1="90.392349"
       y1="167.58794"
       x2="384.66174"
       y2="286.35104"
       gradientUnits="userSpaceOnUse" />
  </defs>
  <sodipodi:namedview
     id="namedview1060"
     pagecolor="#ffffff"
     bordercolor="#666666"
     borderopacity="1.0"
     inkscape:pageshadow="2"
     inkscape:pageopacity="0.0"
     inkscape:pagecheckerboard="0"
     showgrid="false"
     inkscape:zoom="1.515625"
     inkscape:cx="269.52577"
     inkscape:cy="254.02062"
     inkscape:window-width="2560"
     inkscape:window-height="1302"
     inkscape:window-x="0"
     inkscape:window-y="25"
     inkscape:window-maximized="1"
     inkscape:current-layer="Capa_1"
     inkscape:showpageshadow="2"
     inkscape:deskcolor="#d1d1d1" />
  <path
     d="m256.001 477.407c-2.59 0-5.179-.669-7.499-2.009-2.52-1.454-62.391-36.216-123.121-88.594-35.994-31.043-64.726-61.833-85.396-91.513-26.748-38.406-40.199-75.348-39.982-109.801.254-40.09 14.613-77.792 40.435-106.162 26.258-28.848 61.3-44.734 98.673-44.734 47.897 0 91.688 26.83 116.891 69.332 25.203-42.501 68.994-69.332 116.891-69.332 35.308 0 68.995 14.334 94.859 40.362 28.384 28.563 44.511 68.921 44.247 110.724-.218 34.393-13.921 71.279-40.728 109.632-20.734 29.665-49.426 60.441-85.279 91.475-60.508 52.373-119.949 87.134-122.45 88.588-2.331 1.354-4.937 2.032-7.541 2.032z"
     id="path1057"
     style="fill:url(#linearGradient5607);fill-opacity:1" />
</svg>
