<?xml version="1.0" encoding="UTF-8" standalone="no"?>
<svg
   style="enable-background:new 0 0 24 24;"
   version="1.1"
   viewBox="0 0 24 24"
   xml:space="preserve"
   id="svg868"
   sodipodi:docname="msg.svg"
   inkscape:version="1.1.2 (0a00cf5339, 2022-02-04)"
   xmlns:inkscape="http://www.inkscape.org/namespaces/inkscape"
   xmlns:sodipodi="http://sodipodi.sourceforge.net/DTD/sodipodi-0.dtd"
   xmlns="http://www.w3.org/2000/svg"
   xmlns:svg="http://www.w3.org/2000/svg"><defs
     id="defs872" /><sodipodi:namedview
     id="namedview870"
     pagecolor="#ffffff"
     bordercolor="#666666"
     borderopacity="1.0"
     inkscape:pageshadow="2"
     inkscape:pageopacity="0.0"
     inkscape:pagecheckerboard="0"
     showgrid="false"
     inkscape:zoom="35.875"
     inkscape:cx="11.986063"
     inkscape:cy="12"
     inkscape:window-width="1920"
     inkscape:window-height="1056"
     inkscape:window-x="1920"
     inkscape:window-y="24"
     inkscape:window-maximized="1"
     inkscape:current-layer="svg868" /><g
     id="info" /><g
     id="icons"
     style="fill:#fffafa;fill-opacity:1"><path
       d="M20,3H4C1.8,3,0,4.8,0,7v10c0,2.2,1.8,4,4,4h16c2.2,0,4-1.8,4-4V7C24,4.8,22.2,3,20,3z M21.6,8.8l-7.9,5.3   c-0.5,0.3-1.1,0.5-1.7,0.5s-1.2-0.2-1.7-0.5L2.4,8.8C2,8.5,1.9,7.9,2.2,7.4C2.5,7,3.1,6.9,3.6,7.2l7.9,5.3c0.3,0.2,0.8,0.2,1.1,0   l7.9-5.3c0.5-0.3,1.1-0.2,1.4,0.3C22.1,7.9,22,8.5,21.6,8.8z"
       id="email"
       style="fill:#fffafa;fill-opacity:1" /></g></svg>
