<?xml version="1.0" encoding="UTF-8" standalone="no"?>
<!-- Generator: Adobe Illustrator 18.1.1, SVG Export Plug-In . SVG Version: 6.00 Build 0)  -->

<svg
   version="1.1"
   id="Capa_1"
   x="0px"
   y="0px"
   viewBox="0 0 20.298 20.298"
   style="enable-background:new 0 0 20.298 20.298;"
   xml:space="preserve"
   sodipodi:docname="undo.svg"
   inkscape:version="1.1.2 (0a00cf5339, 2022-02-04, custom)"
   xmlns:inkscape="http://www.inkscape.org/namespaces/inkscape"
   xmlns:sodipodi="http://sodipodi.sourceforge.net/DTD/sodipodi-0.dtd"
   xmlns="http://www.w3.org/2000/svg"
   xmlns:svg="http://www.w3.org/2000/svg"><defs
   id="defs1227" /><sodipodi:namedview
   id="namedview1225"
   pagecolor="#ffffff"
   bordercolor="#666666"
   borderopacity="1.0"
   inkscape:pageshadow="2"
   inkscape:pageopacity="0.0"
   inkscape:pagecheckerboard="0"
   showgrid="false"
   inkscape:zoom="38.230367"
   inkscape:cx="9.9266638"
   inkscape:cy="9.9397424"
   inkscape:window-width="1920"
   inkscape:window-height="1011"
   inkscape:window-x="0"
   inkscape:window-y="0"
   inkscape:window-maximized="1"
   inkscape:current-layer="Capa_1" />
<g
   id="g1192"
   style="fill:#131516;fill-opacity:1">
	<g
   id="g1190"
   style="fill:#131516;fill-opacity:1">
		<g
   id="g1188"
   style="fill:#131516;fill-opacity:1">
			<path
   style="fill:#131516;fill-opacity:1"
   d="M0.952,11.102c0-0.264,0.213-0.474,0.475-0.474h2.421c0.262,0,0.475,0.21,0.475,0.474     c0,3.211,2.615,5.826,5.827,5.826s5.827-2.615,5.827-5.826c0-3.214-2.614-5.826-5.827-5.826c-0.34,0-0.68,0.028-1.016,0.089     v1.647c0,0.193-0.116,0.367-0.291,0.439C8.662,7.524,8.46,7.482,8.322,7.347L3.49,4.074c-0.184-0.185-0.184-0.482,0-0.667     l4.833-3.268c0.136-0.136,0.338-0.176,0.519-0.104c0.175,0.074,0.291,0.246,0.291,0.438V1.96c0.34-0.038,0.68-0.057,1.016-0.057     c5.071,0,9.198,4.127,9.198,9.198c0,5.07-4.127,9.197-9.198,9.197C5.079,20.299,0.952,16.172,0.952,11.102z"
   id="path1186" />
		</g>
	</g>
</g>
<g
   id="g1194">
</g>
<g
   id="g1196">
</g>
<g
   id="g1198">
</g>
<g
   id="g1200">
</g>
<g
   id="g1202">
</g>
<g
   id="g1204">
</g>
<g
   id="g1206">
</g>
<g
   id="g1208">
</g>
<g
   id="g1210">
</g>
<g
   id="g1212">
</g>
<g
   id="g1214">
</g>
<g
   id="g1216">
</g>
<g
   id="g1218">
</g>
<g
   id="g1220">
</g>
<g
   id="g1222">
</g>
</svg>
