<?xml version="1.0" encoding="UTF-8" standalone="no"?>
<svg
   viewBox="0 0 640 512"
   version="1.1"
   id="svg866"
   sodipodi:docname="vrchat.svg"
   inkscape:version="1.1.2 (0a00cf5339, 2022-02-04, custom)"
   xmlns:inkscape="http://www.inkscape.org/namespaces/inkscape"
   xmlns:sodipodi="http://sodipodi.sourceforge.net/DTD/sodipodi-0.dtd"
   xmlns="http://www.w3.org/2000/svg"
   xmlns:svg="http://www.w3.org/2000/svg">
  <defs
     id="defs870" />
  <sodipodi:namedview
     id="namedview868"
     pagecolor="#ffffff"
     bordercolor="#666666"
     borderopacity="1.0"
     inkscape:pageshadow="2"
     inkscape:pageopacity="0.0"
     inkscape:pagecheckerboard="0"
     showgrid="false"
     inkscape:zoom="1.5546875"
     inkscape:cx="320"
     inkscape:cy="256"
     inkscape:window-width="1920"
     inkscape:window-height="1011"
     inkscape:window-x="1920"
     inkscape:window-y="32"
     inkscape:window-maximized="1"
     inkscape:current-layer="svg866" />
  <path
     style="stroke-width:0.212656;fill:#ffffff;fill-opacity:1"
     d="m 456.65252,479.54872 c -1.59147,-0.21058 -3.31042,-0.5628 -4.05696,-0.83115 -0.2814,-0.14908 -0.94296,-0.35221 -1.47222,-0.49384 -2.66936,-0.76034 -9.11839,-4.68387 -12.74841,-7.74979 -2.25398,-1.90866 -3.45131,-3.18353 -5.75449,-6.14173 -0.99328,-1.27468 -2.14122,-2.71875 -2.54972,-3.21185 -0.42303,-0.49385 -1.46476,-1.83188 -2.33839,-2.96529 -0.87961,-1.1405 -2.1131,-2.70459 -2.73999,-3.48635 -1.1759,-1.45731 -5.02882,-6.33909 -5.97979,-7.57593 -0.2814,-0.35221 -0.95787,-1.24672 -1.48525,-1.92282 -0.49385,-0.70442 -1.19828,-1.53557 -1.48526,-1.91592 -0.28141,-0.35222 -0.96532,-1.23927 -1.48526,-1.91574 -0.49384,-0.70442 -1.19827,-1.54303 -1.48712,-1.92282 -0.28139,-0.35221 -1.92282,-2.45114 -3.61326,-4.59219 -1.6977,-2.14122 -3.63431,-4.61342 -4.30351,-5.49395 -0.70443,-0.8796 -1.60639,-2.07768 -2.07769,-2.66228 -0.49383,-0.5628 -1.07154,-1.36599 -1.33057,-1.74056 -0.2814,-0.35222 -1.33058,-1.76107 -2.3807,-3.08494 -1.04173,-1.32499 -2.606,-3.31751 -3.45821,-4.43024 -0.8591,-1.11254 -2.23273,-2.88087 -3.06387,-3.93732 -0.8237,-1.04919 -1.86655,-2.39468 -2.31734,-2.97928 -0.42303,-0.56279 -1.28213,-1.65484 -1.84493,-2.38069 -0.56279,-0.72493 -1.92989,-2.49344 -3.03573,-3.93733 -1.10509,-1.44427 -2.64122,-3.40193 -3.40193,-4.35271 -0.76779,-0.95788 -2.10601,-2.66247 -2.98635,-3.79645 -3.0568,-3.9513 -3.7752,-4.87396 -6.86032,-8.75127 -3.19768,-4.02194 -7.69557,-9.61 -8.87874,-11.02445 -0.49385,-0.6336 -1.50017,-1.79647 -2.16247,-2.59183 -1.80952,-2.18353 -4.62033,-4.83892 -5.80369,-5.4798 -1.03613,-0.56279 -1.1405,-0.56279 -6.59252,-0.76778 -7.99151,-0.2814 -67.93622,-0.63361 -109.31879,-0.63361 -61.7753,-0.0114 -86.6758,-0.42303 -91.86749,-1.46476 -0.5628,-0.14909 -1.37344,-0.28139 -1.75361,-0.35221 -0.35221,-0.0745 -0.74729,-0.21059 -0.81065,-0.35222 -0.0559,-0.14908 -0.35221,-0.21058 -0.63361,-0.21058 -0.2814,0 -0.56279,-0.0746 -0.63361,-0.21058 -0.0745,-0.14909 -0.35221,-0.21059 -0.63361,-0.21059 -0.2814,0 -0.56279,-0.0745 -0.63361,-0.21057 -0.0745,-0.14909 -0.2814,-0.21059 -0.42303,-0.21059 -0.35221,0 -3.05679,-1.16285 -4.97961,-2.11998 -10.70745,-5.36705 -19.81653,-14.55365 -25.13159,-25.34627 -1.93679,-3.93732 -3.78936,-9.19871 -4.10616,-11.66104 -1.21132,-9.52762 -1.89468,-117.64405 -1.19827,-188.20026 0.42303,-40.867102 0.42303,-39.621127 0.63361,-48.059694 0.2814,-8.845196 0.56279,-13.47409 1.00632,-15.098927 0.14909,-0.63361 0.35221,-1.457304 0.49384,-1.809516 0.42303,-1.520664 1.91593,-5.409166 2.94424,-7.555986 3.76104,-7.816139 9.6564,-14.960279 16.92727,-20.510331 2.96529,-2.267951 9.71566,-6.05023 12.35334,-6.930762 0.49385,-0.149084 0.94296,-0.352212 1.04919,-0.423028 0.14908,-0.07454 0.42302,-0.149084 0.70442,-0.149084 0.2814,0 0.5628,-0.07454 0.63361,-0.210582 0.0745,-0.149085 0.35221,-0.210583 0.63361,-0.210583 0.2814,0 0.5628,-0.07454 0.63361,-0.210582 0.0559,-0.149085 0.35221,-0.210582 0.70443,-0.281397 0.35221,-0.05591 1.01377,-0.210582 1.54302,-0.352213 1.57844,-0.423028 5.44458,-0.63361 13.1845,-0.831147 4.03572,-0.07454 11.54754,-0.281397 16.69339,-0.423028 27.58756,-0.63361 136.33573,-1.028685 206.70893,-0.704425 46.48425,0.210582 83.12312,0.562795 85.90597,0.77524 0.70442,0.05591 4.95856,0.210582 9.46334,0.352213 8.57125,0.210582 12.5028,0.423028 13.92898,0.803194 0.92247,0.210582 2.93007,0.838601 3.61325,1.10509 5.44458,2.120171 8.08654,3.430067 11.59973,5.747402 9.52409,6.289698 16.87881,15.067248 21.10909,25.191964 0.2814,0.704425 0.74729,1.944064 1.00818,2.761048 0.2814,0.81624 0.5628,1.67534 0.63361,1.915926 0.0745,0.210581 0.2814,0.810647 0.35222,1.274674 0.14908,0.493843 0.2814,1.092046 0.35222,1.380897 0.42302,1.619433 0.87959,14.186901 1.16285,32.855297 0.0746,6.78279 0.2814,16.6399 0.42303,21.90353 0.28139,12.41949 0.28139,133.58251 0,146.20067 -0.14908,5.32475 -0.2814,14.84325 -0.35222,21.1596 -0.28139,19.08973 -0.70442,28.23348 -1.27467,30.51614 -0.14908,0.49385 -0.28139,1.21877 -0.35221,1.54303 -0.0559,0.35221 -0.21058,0.63361 -0.2814,0.70443 -0.14908,0.0559 -0.21058,0.35221 -0.21058,0.63361 0,0.2814 -0.0746,0.56279 -0.21058,0.63361 -0.14909,0.0559 -0.21059,0.35221 -0.2814,0.70442 -0.35221,1.92282 -3.8175,8.73376 -6.1982,12.17724 -2.9159,4.21891 -7.85415,9.47471 -12.24358,13.02535 -3.26104,2.64122 -9.66628,6.29677 -13.3196,7.60257 -2.35964,0.84606 -4.63467,1.56353 -6.77571,2.14123 -2.53575,0.70443 -3.75415,1.03614 -5.42352,1.55608 l -0.95787,0.28139 -0.14908,10.282 c -0.0745,5.65571 -0.21059,21.28706 -0.35222,34.73785 -0.14908,13.4508 -0.2814,26.08238 -0.35221,28.07061 -0.0559,1.98637 -0.0746,7.02934 -0.0746,11.20613 l 0.006,7.59066 -1.95095,3.89484 c -1.06969,2.14122 -2.28212,4.41626 -2.6977,5.06422 -3.60616,5.64174 -9.15846,9.46352 -15.92224,10.95176 -1.66975,0.35222 -5.30369,0.56279 -7.09271,0.35222 z"
     id="path1518"
     sodipodi:nodetypes="ccccccccccccccccccccccccccccccccccscscscccccccccccscscccccccccccccccccccccccscccccccccccccccccc" />
  <path
     style="stroke-width:0.212656"
     d="m 456.65252,479.54872 c -1.59147,-0.21058 -3.31042,-0.5628 -4.05696,-0.83115 -0.2814,-0.14908 -0.94296,-0.35221 -1.47222,-0.49384 -2.66936,-0.76034 -9.11839,-4.68387 -12.74841,-7.74979 -2.25398,-1.90866 -3.45131,-3.18353 -5.75449,-6.14173 -0.99328,-1.27468 -2.14122,-2.71875 -2.54972,-3.21185 -0.42303,-0.49385 -1.46476,-1.83188 -2.33839,-2.96529 -0.87961,-1.1405 -2.1131,-2.70459 -2.73999,-3.48635 -1.1759,-1.45731 -5.02882,-6.33909 -5.97979,-7.57593 -0.2814,-0.35221 -0.95787,-1.24672 -1.48525,-1.92282 -0.49385,-0.70442 -1.19828,-1.53557 -1.48526,-1.91592 -0.28141,-0.35222 -0.96532,-1.23927 -1.48526,-1.91574 -0.49384,-0.70442 -1.19827,-1.54303 -1.48712,-1.92282 -0.28139,-0.35221 -1.92282,-2.45114 -3.61326,-4.59219 -1.6977,-2.14122 -3.63431,-4.61342 -4.30351,-5.49395 -0.70443,-0.8796 -1.60639,-2.07768 -2.07769,-2.66228 -0.49383,-0.5628 -1.07154,-1.36599 -1.33057,-1.74056 -0.2814,-0.35222 -1.33058,-1.76107 -2.3807,-3.08494 -1.04173,-1.32499 -2.606,-3.31751 -3.45821,-4.43024 -0.8591,-1.11254 -2.23273,-2.88087 -3.06387,-3.93732 -0.8237,-1.04919 -1.86655,-2.39468 -2.31734,-2.97928 -0.42303,-0.56279 -1.28213,-1.65484 -1.84493,-2.38069 -0.56279,-0.72493 -1.92989,-2.49344 -3.03573,-3.93733 -1.10509,-1.44427 -2.64122,-3.40193 -3.40193,-4.35271 -0.76779,-0.95788 -2.10601,-2.66247 -2.98635,-3.79645 -3.0568,-3.9513 -3.7752,-4.87396 -6.86032,-8.75127 -3.19768,-4.02194 -7.69557,-9.61 -8.87874,-11.02445 -0.49385,-0.6336 -1.50017,-1.79647 -2.16247,-2.59183 -1.80952,-2.18353 -4.62033,-4.83892 -5.80369,-5.4798 -1.03613,-0.56279 -1.1405,-0.56279 -6.59252,-0.76778 -7.99151,-0.2814 -67.93622,-0.63361 -109.31879,-0.63361 -61.7753,-0.0114 -86.6758,-0.42303 -91.86749,-1.46476 -0.5628,-0.14909 -1.37344,-0.28139 -1.75361,-0.35221 -0.35221,-0.0745 -0.74729,-0.21059 -0.81065,-0.35222 -0.0559,-0.14908 -0.35221,-0.21058 -0.63361,-0.21058 -0.2814,0 -0.56279,-0.0746 -0.63361,-0.21058 -0.0745,-0.14909 -0.35221,-0.21059 -0.63361,-0.21059 -0.2814,0 -0.56279,-0.0745 -0.63361,-0.21057 -0.0745,-0.14909 -0.2814,-0.21059 -0.42303,-0.21059 -0.35221,0 -3.05679,-1.16285 -4.97961,-2.11998 -10.70745,-5.36705 -19.81653,-14.55365 -25.13159,-25.34627 -1.93679,-3.93732 -3.78936,-9.19871 -4.10616,-11.66104 -1.21132,-9.52762 -1.89468,-117.64405 -1.19827,-188.20026 0.42303,-40.867102 0.42303,-39.621127 0.63361,-48.059694 0.2814,-8.845196 0.56279,-13.47409 1.00632,-15.098927 0.14909,-0.63361 0.35221,-1.457304 0.49384,-1.809516 0.42303,-1.520664 1.91593,-5.409166 2.94424,-7.555986 3.76104,-7.816139 9.6564,-14.960279 16.92727,-20.510331 2.96529,-2.267951 9.71566,-6.05023 12.35334,-6.930762 0.49385,-0.149084 0.94296,-0.352212 1.04919,-0.423028 0.14908,-0.07454 0.42302,-0.149084 0.70442,-0.149084 0.2814,0 0.5628,-0.07454 0.63361,-0.210582 0.0745,-0.149085 0.35221,-0.210583 0.63361,-0.210583 0.2814,0 0.5628,-0.07454 0.63361,-0.210582 0.0559,-0.149085 0.35221,-0.210582 0.70443,-0.281397 0.35221,-0.05591 1.01377,-0.210582 1.54302,-0.352213 1.57844,-0.423028 5.44458,-0.63361 13.1845,-0.831147 4.03572,-0.07454 11.54754,-0.281397 16.69339,-0.423028 27.58756,-0.63361 136.33573,-1.028685 206.70893,-0.704425 46.48425,0.210582 83.12312,0.562795 85.90597,0.77524 0.70442,0.05591 4.95856,0.210582 9.46334,0.352213 8.57125,0.210582 12.5028,0.423028 13.92898,0.803194 0.92247,0.210582 2.93007,0.838601 3.61325,1.10509 5.44458,2.120171 8.08654,3.430067 11.59973,5.747402 9.52409,6.289698 16.87881,15.067248 21.10909,25.191964 0.2814,0.704425 0.74729,1.944064 1.00818,2.761048 0.2814,0.81624 0.5628,1.67534 0.63361,1.915926 0.0745,0.210581 0.2814,0.810647 0.35222,1.274674 0.14908,0.493843 0.2814,1.092046 0.35222,1.380897 0.42302,1.619433 0.87959,14.186901 1.16285,32.855297 0.0746,6.78279 0.2814,16.6399 0.42303,21.90353 0.28139,12.41949 0.28139,133.58251 0,146.20067 -0.14908,5.32475 -0.2814,14.84325 -0.35222,21.1596 -0.28139,19.08973 -0.70442,28.23348 -1.27467,30.51614 -0.14908,0.49385 -0.28139,1.21877 -0.35221,1.54303 -0.0559,0.35221 -0.21058,0.63361 -0.2814,0.70443 -0.14908,0.0559 -0.21058,0.35221 -0.21058,0.63361 0,0.2814 -0.0746,0.56279 -0.21058,0.63361 -0.14909,0.0559 -0.21059,0.35221 -0.2814,0.70442 -0.35221,1.92282 -3.8175,8.73376 -6.1982,12.17724 -2.9159,4.21891 -7.85415,9.47471 -12.24358,13.02535 -3.26104,2.64122 -9.66628,6.29677 -13.3196,7.60257 -2.35964,0.84606 -4.63467,1.56353 -6.77571,2.14123 -2.53575,0.70443 -3.75415,1.03614 -5.42352,1.55608 l -0.95787,0.28139 -0.14908,10.282 c -0.0745,5.65571 -0.21059,21.28706 -0.35222,34.73785 -0.14908,13.4508 -0.2814,26.08238 -0.35221,28.07061 -0.0559,1.98637 -0.0746,7.02934 -0.0746,11.20613 l 0.006,7.59066 -1.95095,3.89484 c -1.06969,2.14122 -2.28212,4.41626 -2.6977,5.06422 -3.60616,5.64174 -9.15846,9.46352 -15.92224,10.95176 -1.66975,0.35222 -5.30369,0.56279 -7.09271,0.35222 z m 4.98671,-20.91044 c 0.97836,-0.56279 1.8807,-1.77411 2.31024,-3.13432 1.0641,-3.33856 1.24672,-11.58555 1.39395,-62.94655 l 0.14909,-44.76417 2.97926,-0.14909 c 1.6418,-0.0745 5.27555,-0.28139 8.08077,-0.35221 9.99464,-0.49384 12.37813,-0.94296 17.86352,-3.61325 3.6414,-1.77411 6.3743,-3.74706 9.1605,-6.62067 3.70495,-3.8175 5.67697,-6.97996 7.75279,-12.40478 0.21058,-0.63361 1.00632,-3.21892 1.35294,-4.57112 1.02123,-3.97963 1.27467,-27.94668 1.27467,-120.789 0.003,-92.7238 -0.21057,-115.912069 -1.26722,-119.905675 -0.2814,-1.168452 -0.42303,-1.479667 -1.16845,-3.859804 -0.6336,-1.929902 -2.27503,-5.33891 -3.48653,-7.230609 -3.78917,-5.916426 -10.07962,-11.080721 -16.27502,-13.359854 -3.96547,-1.457302 -4.55714,-1.626886 -7.01518,-1.965122 -9.70653,-1.352944 -318.92966,-1.352944 -329.51076,0.0013 -5.50794,0.704425 -12.09711,3.810419 -16.96976,7.996345 -5.64174,4.852894 -9.91059,12.388567 -11.19048,19.770869 -1.24672,7.180665 -1.6977,137.92182 -0.75288,215.95183 0.14908,10.08894 0.5628,21.39068 0.92992,22.96706 0.49384,2.2046 0.63361,2.73981 1.18336,4.3598 1.88051,5.5713 5.69801,11.35541 9.80511,14.86021 3.00033,2.55661 4.78245,3.62722 11.79186,7.07649 l 2.02159,0.99327 32.4304,0.14909 c 17.83593,0.0745 48.51477,0.14908 68.1742,0.21058 19.65887,0.0114 52.0041,0.0746 71.87765,0.14909 l 36.13329,0.14909 8.6266,8.6415 c 8.17469,8.18866 10.88132,11.01587 14.78752,15.44611 6.99413,7.92944 16.0076,19.08974 30.81339,38.14407 3.39503,4.36706 7.49133,9.62546 9.11002,11.69066 1.61942,2.06371 3.33856,4.2683 3.82457,4.8952 0.49385,0.63361 4.40899,5.55713 8.71401,10.94953 13.00205,16.28713 15.84975,19.47213 18.82902,21.06175 1.33058,0.71188 1.52812,0.75474 3.43007,0.75474 1.70515,0.003 2.14831,-0.0745 2.85963,-0.49384 z M 242.71857,290.7989 c -3.24706,-0.42303 -5.05005,-0.92247 -7.23004,-1.96494 -4.05697,-1.93698 -7.11023,-5.47271 -8.57741,-9.9419 -0.5628,-1.7387 -1.53557,-4.78245 -2.05662,-6.48686 -0.49385,-1.62689 -0.63361,-2.17645 -1.96513,-6.27573 -0.42302,-1.28212 -0.85909,-2.76793 -1.00818,-3.29626 -0.14909,-0.49198 -0.35222,-1.14794 -0.42303,-1.38089 -0.21058,-0.49384 -0.90942,-2.85255 -1.27468,-4.14847 -0.14908,-0.49385 -0.42302,-1.28958 -0.56279,-1.70516 -0.14908,-0.42302 -0.35221,-1.07714 -0.49384,-1.48525 -0.14908,-0.42303 -0.42303,-1.32499 -0.63362,-2.03557 -0.21057,-0.71188 -0.42302,-1.45171 -0.42302,-1.64739 0,-0.21058 -0.0745,-0.49384 -0.21058,-0.73238 -0.21058,-0.42302 -1.50762,-4.53589 -1.50762,-4.83164 0,-0.14908 -0.21059,-0.83115 -0.49385,-1.59148 -0.81623,-2.25397 -1.4163,-4.18388 -1.4163,-4.55715 0,-0.21058 -0.0745,-0.49384 -0.21058,-0.71933 -0.14908,-0.21059 -0.49385,-1.37344 -0.8591,-2.606 -0.35221,-1.22622 -0.97837,-3.23999 -1.37344,-4.46546 -0.35222,-1.22623 -0.82369,-2.66247 -0.97838,-3.19078 -0.14908,-0.49199 -0.42302,-1.48526 -0.6336,-2.12708 -0.49384,-1.45171 -1.19828,-3.86669 -1.50762,-4.99378 -0.14909,-0.49384 -0.35222,-1.18335 -0.49385,-1.59147 -0.14908,-0.42303 -0.49384,-1.4163 -0.72492,-2.23274 -0.56279,-1.80952 -1.22622,-4.06405 -1.7182,-5.63484 -0.21058,-0.63362 -0.49385,-1.59894 -0.63361,-2.12707 -0.14909,-0.49384 -0.49385,-1.62688 -0.73983,-2.44406 -0.2814,-0.81624 -0.70443,-2.20459 -0.95788,-3.08493 -0.28139,-0.88147 -0.6336,-2.12017 -0.85164,-2.76106 -0.21058,-0.6336 -0.49384,-1.59892 -0.63361,-2.12706 -0.14908,-0.49384 -0.56279,-1.91574 -0.95041,-3.08494 -0.35222,-1.16845 -0.8032,-2.5568 -0.95788,-3.08511 -0.14908,-0.49385 -0.42302,-1.48712 -0.6336,-2.12707 -0.21059,-0.63361 -0.49385,-1.59894 -0.63361,-2.12707 -0.14909,-0.49384 -0.42303,-1.52811 -0.70443,-2.23273 -0.21058,-0.70442 -0.49384,-1.56352 -0.56279,-1.91574 -0.0745,-0.35221 -0.5628,-1.78901 -0.95787,-3.19079 -0.42303,-1.40139 -0.97837,-3.21873 -1.21877,-4.0428 -0.21058,-0.81623 -0.49384,-1.72566 -0.63361,-2.0214 -0.0745,-0.2814 -0.35221,-1.24672 -0.63361,-2.12725 -0.2814,-0.8796 -0.70443,-2.26796 -0.95042,-3.08494 -0.28139,-0.81623 -0.56279,-1.91574 -0.73983,-2.44405 -0.14908,-0.49385 -0.42303,-1.48712 -0.70442,-2.14124 -0.21059,-0.63361 -0.42303,-1.34549 -0.42303,-1.54302 0,-0.21059 -0.0745,-0.49385 -0.21058,-0.73238 -0.14909,-0.21058 -0.2814,-0.79574 -0.42303,-1.32313 -0.49385,-1.74056 -0.63361,-2.21874 -1.12746,-3.82458 -0.28139,-0.8796 -0.63361,-2.02848 -0.77524,-2.54971 -0.14908,-0.49385 -0.35221,-1.19828 -0.42302,-1.48526 -0.0745,-0.28141 -0.2814,-0.91502 -0.42303,-1.3809 -0.14909,-0.49385 -0.42303,-1.47222 -0.63361,-2.23274 -0.21058,-0.76033 -0.63361,-2.09892 -0.87401,-2.97926 -0.2814,-0.87961 -0.5628,-1.9791 -0.74729,-2.44406 -0.14908,-0.49384 -0.42303,-1.28213 -0.56279,-1.80952 -0.14909,-0.49384 -0.35221,-1.19827 -0.42303,-1.48712 -0.0745,-0.28139 -0.2814,-0.95787 -0.42303,-1.48526 -0.14908,-0.49384 -0.35221,-1.1964 -0.42303,-1.48525 -0.14908,-0.56279 -0.56279,-1.90157 -0.86655,-3.08494 -0.0745,-0.35221 -0.35221,-1.31008 -0.5628,-2.12706 -0.75287,-2.68353 -1.12,-4.02883 -1.32499,-4.83892 -0.14908,-0.42303 -0.28139,-1.20385 -0.42302,-1.70516 -0.49385,-1.94406 -0.5628,-2.21167 -0.81065,-3.05679 -0.63361,-2.53575 0.0373,-4.36688 2.64122,-7.00121 1.80393,-1.82442 3.70475,-3.08493 6.30386,-4.18369 2.39467,-1.00632 3.71184,-1.31008 7.62289,-1.74615 5.29679,-0.5628 9.36364,0.2814 11.47579,2.45095 0.78829,0.8181 1.94407,2.89485 2.23981,4.02175 0.0746,0.2814 0.21059,0.81624 0.35222,1.16845 0.14909,0.35221 0.28139,1.02123 0.42302,1.48526 0.14909,0.49384 0.35222,1.13304 0.42304,1.48525 0.0746,0.35222 0.3522,1.35854 0.6336,2.23273 0.21059,0.8796 0.63361,2.26796 0.86656,3.08513 0.2814,0.81623 0.56279,1.87343 0.70442,2.33839 0.14909,0.49198 0.2814,1.09205 0.42303,1.3809 0.0745,0.2814 0.2814,0.91501 0.35222,1.38089 0.21058,0.73983 0.70442,2.58495 1.28957,4.67679 0.0746,0.35221 0.2814,1.02123 0.42304,1.48526 0.14908,0.49384 0.42303,1.52066 0.70442,2.33839 0.49385,1.54302 0.49385,1.64179 1.26722,4.46546 0.2814,0.93737 0.56279,1.98637 0.63361,2.33839 0.35221,1.21877 0.63362,2.34548 0.84606,3.08512 0.21058,0.73984 0.28139,1.12 0.96532,3.40193 0.21059,0.63361 0.42303,1.47967 0.56279,1.85983 0.14909,0.35222 0.28141,1.04919 0.42304,1.48712 0.14908,0.42303 0.28139,1.13305 0.42302,1.54303 0.0746,0.42303 0.2814,1.07714 0.42303,1.48712 0.83114,2.88069 1.09949,3.8667 1.28958,4.67679 0.0746,0.42302 0.35221,1.31754 0.5628,2.0214 0.42302,1.26163 0.81064,2.57786 1.1405,3.82458 0.0745,0.35222 0.28139,1.07155 0.42302,1.59149 0.14908,0.49383 0.35222,1.19826 0.42303,1.48525 0.21058,0.76033 1.03613,3.57113 1.30263,4.57112 0.14908,0.49385 0.49384,1.6623 0.75288,2.65539 0.63361,2.14831 1.21131,4.21202 1.56352,5.52918 0.14909,0.49198 0.35222,1.1964 0.42303,1.48525 0.28139,0.88706 0.5628,1.97221 0.84606,2.97947 0.21057,0.81623 0.94296,3.26812 1.50016,5.10633 0.0745,0.2814 0.2814,0.915 0.35221,1.3809 0.63361,2.34548 0.73984,2.79627 0.91501,3.13432 0.14908,0.21058 0.21058,0.56279 0.21058,0.78828 0,0.21058 0.0745,0.63362 0.21059,0.90942 0.14908,0.28139 0.28139,0.915 0.42302,1.44426 0.14909,0.49384 0.35222,1.19827 0.42303,1.48712 0.0746,0.2814 0.35221,1.10509 0.5628,1.80951 0.21057,0.70442 0.42302,1.51507 0.56279,1.80952 0.0745,0.2814 0.28139,0.96532 0.42302,1.48526 0.14909,0.49384 0.35222,1.19827 0.42304,1.48711 0.0745,0.28141 0.2814,0.96533 0.42303,1.48526 0.14908,0.49384 0.3522,1.19827 0.42302,1.48525 0.0745,0.28141 0.2814,0.96533 0.42303,1.48526 0.14909,0.49385 0.49384,1.76852 0.79574,2.76106 0.2814,0.99327 0.63361,2.14123 0.75287,2.54972 0.14909,0.42303 0.2814,0.96533 0.42303,1.23181 0.0746,0.2814 0.21059,0.70443 0.21059,0.90943 0,0.21057 0.0745,0.56279 0.21058,0.78828 0.14908,0.21058 0.2814,0.80319 0.42303,1.32499 0.14909,0.49384 0.35221,1.19827 0.42302,1.48526 0.0745,0.28139 0.2814,0.95786 0.42303,1.48712 0.14909,0.49383 0.35221,1.1964 0.42303,1.48525 0.14908,0.49198 0.49198,1.54862 1.68279,5.63466 0.21059,0.70442 0.49198,1.70515 0.63361,2.23273 0.14909,0.49384 0.42303,1.52812 0.70443,2.23272 0.21058,0.70443 0.49384,1.56353 0.5628,1.91593 0.85909,3.07785 1.35294,3.93714 2.23981,3.93714 0.35221,0 0.56279,-0.21058 0.71747,-0.56279 0.28139,-0.76033 1.18336,-3.53574 1.48712,-4.62741 0.56279,-2.07079 1.16286,-4.14156 1.52812,-5.42332 0.21057,-0.76033 0.63361,-2.09893 0.84418,-2.97946 0.28141,-0.8796 0.5628,-1.9791 0.72493,-2.44406 0.42303,-1.35294 0.88705,-2.94405 1.44426,-5.10634 0.14909,-0.49384 0.28139,-1.09205 0.35221,-1.38089 0.0745,-0.28141 0.2814,-0.95788 0.42303,-1.48526 0.14909,-0.49384 0.35221,-1.19827 0.42303,-1.48712 0.0746,-0.2814 0.28139,-0.91501 0.42302,-1.3809 0.14909,-0.49384 0.42304,-1.52067 0.70443,-2.3384 0.2814,-0.81624 0.63361,-2.20459 0.86656,-3.08493 0.42302,-1.51508 0.56279,-2.08477 1.01377,-3.66954 0.14908,-0.35221 0.2814,-1.04918 0.42303,-1.48525 0.14909,-0.42303 0.35221,-1.15541 0.42302,-1.59148 0.14909,-0.42304 0.28141,-1.0846 0.42304,-1.43681 0.0746,-0.35221 0.49384,-1.69025 0.83859,-2.97946 0.35222,-1.28213 0.77524,-2.71874 0.90197,-3.1906 0.14908,-0.49198 0.2814,-1.09204 0.42303,-1.3809 0.2814,-0.90196 0.76032,-2.66227 1.25417,-4.57111 0.14909,-0.49385 0.49385,-1.6623 0.74729,-2.65539 0.63361,-2.06371 1.32499,-4.59926 1.65484,-5.84598 0.21058,-0.86656 0.49384,-1.90866 0.81065,-2.87361 0.14908,-0.49385 0.42302,-1.59894 0.88705,-3.29627 0.14908,-0.49384 0.35221,-1.23181 0.49384,-1.6977 0.14909,-0.49384 0.35222,-1.28213 0.5628,-1.80952 0.14908,-0.49383 0.35222,-1.19827 0.42303,-1.48525 0.14909,-0.5628 0.49384,-1.73311 0.8945,-3.29626 0.14909,-0.49385 0.28141,-1.09205 0.35222,-1.38091 0.0745,-0.28139 0.28139,-0.93736 0.42302,-1.4368 0.14909,-0.49383 0.35222,-1.31008 0.49385,-1.80951 0.14909,-0.49385 0.28139,-1.1405 0.42302,-1.4368 0.0746,-0.2814 0.35222,-1.10509 0.5628,-1.80952 0.21058,-0.70443 0.42303,-1.51508 0.5628,-1.80952 0.14908,-0.5628 0.49384,-1.74615 0.8945,-3.29626 0.14909,-0.49384 0.28141,-1.09204 0.35222,-1.3809 0.0745,-0.28139 0.28139,-0.96532 0.42302,-1.48712 0.14909,-0.49198 0.35222,-1.24672 0.42304,-1.59893 0.0745,-0.35222 0.42302,-1.50017 0.73237,-2.54972 0.2814,-1.04919 0.63361,-2.29609 0.77524,-2.76813 0.14909,-0.49198 0.2814,-1.09205 0.42303,-1.3809 0.0746,-0.2814 0.2814,-0.96533 0.42303,-1.49271 0.14908,-0.49384 0.35221,-1.19827 0.42303,-1.48712 0.0745,-0.28139 0.28139,-0.91501 0.42302,-1.3809 0.70443,-2.48635 1.16287,-4.11325 1.43681,-4.74015 0.14909,-0.35221 0.28139,-0.84605 0.28139,-1.02122 0,-0.14909 0.21059,-0.96533 0.42304,-1.74616 0.21057,-0.78083 0.63361,-2.09893 0.87959,-2.91591 0.2814,-0.81624 0.70443,-2.2046 0.97278,-3.08494 0.2814,-0.8796 0.63361,-1.8807 0.70443,-2.23273 0.21057,-0.70442 1.68279,-5.06422 2.37362,-6.9097 0.76032,-2.02849 2.68352,-5.81766 3.38086,-6.66297 1.37345,-1.65484 3.0076,-2.26795 6.04333,-2.26795 2.95821,0 5.97979,0.35221 8.714,1.0995 4.8952,1.28958 10.1277,4.9375 11.6793,8.1486 0.35222,0.70442 0.70442,1.44425 0.79574,1.64738 0.21058,0.49385 0.21058,2.35237 -0.0119,2.97219 -0.14908,0.2814 -0.2814,0.91501 -0.42303,1.44426 -0.56279,2.07079 -0.63361,2.28211 -2.52866,8.61263 -0.21058,0.70442 -0.49384,1.70515 -0.63361,2.23272 -0.14908,0.49385 -0.35221,1.19828 -0.42303,1.48526 -0.0745,0.2814 -0.28139,0.95787 -0.42302,1.48712 -0.14909,0.49384 -0.49198,1.62688 -0.73238,2.44406 -0.2814,0.81624 -0.5628,1.92282 -0.73984,2.44406 -0.14908,0.49384 -0.35221,1.19826 -0.42302,1.48712 -0.0746,0.28139 -0.2814,0.96532 -0.42304,1.48525 -0.14908,0.49385 -0.42302,1.48526 -0.6336,2.12707 -0.21058,0.63361 -0.49384,1.59893 -0.63361,2.12707 -0.14909,0.49384 -0.49384,1.62689 -0.75288,2.44405 -0.2814,0.81624 -0.70442,2.20459 -0.95041,3.08494 -0.2814,0.8796 -0.75288,2.54972 -1.09951,3.71891 -0.35221,1.16846 -0.83114,2.79627 -1.07154,3.61326 -0.21059,0.81624 -0.63361,2.15521 -0.90756,2.97927 -0.28139,0.81624 -0.70442,2.20459 -0.9504,3.08513 -0.28141,0.87959 -0.5628,1.83187 -0.63362,2.12706 -0.0746,0.2814 -0.2814,0.95787 -0.42303,1.48526 -0.14908,0.49384 -0.35221,1.12745 -0.42303,1.32499 -0.14908,0.21058 -0.21057,0.49384 -0.21057,0.71188 0,0.21058 -0.35222,1.31754 -0.71188,2.50033 -0.42304,1.19082 -0.8386,2.58494 -0.98583,3.11308 -0.63361,2.23981 -1.12746,3.74725 -1.30263,4.09219 -0.14908,0.21058 -0.21058,0.56279 -0.21058,0.78828 0,0.21059 -0.0746,0.63361 -0.21058,0.90942 -0.14909,0.2814 -0.42303,1.16286 -0.63361,1.97929 -0.42303,1.46475 -1.20386,3.96528 -1.92991,6.27553 -0.21057,0.63361 -0.49383,1.59894 -0.63361,2.12706 -0.14908,0.49385 -0.42302,1.52813 -0.70442,2.23274 -0.21058,0.70442 -0.49198,1.56352 -0.56279,1.91592 -0.0746,0.35221 -0.49384,1.73871 -0.94483,3.08493 -0.42303,1.34549 -1.06409,3.45132 -1.4368,4.67679 -0.35221,1.22623 -0.73984,2.4722 -0.83115,2.76106 -0.0745,0.28139 -0.28139,0.96532 -0.42302,1.48525 -0.14909,0.49384 -0.49385,1.57844 -0.73984,2.3384 -0.2814,0.76033 -0.63361,1.81697 -0.74728,2.33839 -0.56281,1.98619 -1.11255,3.7329 -1.29704,4.09219 -0.14909,0.21059 -0.21059,0.5628 -0.21059,0.73238 0,0.21059 -0.21057,0.89452 -0.42302,1.54303 -0.21059,0.63361 -0.49385,1.61197 -0.70443,2.14123 -0.14908,0.49198 -0.5628,1.91574 -0.95787,3.08494 -0.35221,1.16845 -0.80319,2.5568 -0.95042,3.08493 -0.14908,0.49384 -0.42302,1.48525 -0.6336,2.12707 -0.21058,0.63361 -0.5628,1.88759 -0.85165,2.76104 -0.2814,0.8796 -0.70442,2.26795 -0.95787,3.08494 -0.28139,0.81624 -0.70442,2.20459 -0.95042,3.08513 -0.73237,2.42989 -0.75287,2.50033 -1.4927,4.88811 -0.35222,1.22622 -1.00074,3.19059 -1.37344,4.35979 -0.35222,1.16845 -0.90197,2.84547 -1.16287,3.71892 -0.2814,0.8796 -0.56279,1.76106 -0.70442,1.96512 -0.14909,0.21059 -0.21059,0.5628 -0.21059,0.8032 0,0.21058 -0.0745,0.56279 -0.21058,0.79574 -0.14908,0.21058 -0.73983,2.09184 -1.40884,4.19786 -0.70444,2.106 -1.28959,4.02174 -1.37345,4.25431 -0.0746,0.21058 -0.2814,0.81065 -0.42303,1.27468 -0.14908,0.49383 -0.35221,1.04173 -0.42303,1.27467 -0.0745,0.21058 -0.35221,1.0995 -0.63361,1.91593 -0.63361,2.00724 -1.88052,5.44457 -2.14122,5.89518 -0.14909,0.21058 -0.21059,0.49384 -0.21059,0.6336 0,0.14909 -0.49384,1.22623 -1.04919,2.41593 -0.84605,1.74055 -1.29517,2.39467 -2.30317,3.31732 -1.84492,1.6977 -5.56421,3.63449 -8.13089,4.23307 -3.55697,0.83115 -9.55931,1.06409 -13.60995,0.49384 z m 190.17246,-0.007 c -2.0214,-0.35222 -3.85272,-1.35853 -5.19094,-2.82442 -1.04173,-1.14795 -3.6837,-5.02899 -4.95856,-7.30049 -1.51508,-2.6906 -2.34547,-4.20493 -3.14829,-5.7051 -0.49385,-0.8796 -1.35295,-2.50742 -1.95805,-3.61325 -0.63361,-1.11254 -1.95115,-3.64848 -2.97946,-5.63466 -1.02868,-1.98636 -1.93698,-3.71183 -2.0214,-3.82458 -0.0745,-0.14909 -1.37344,-2.606 -2.86671,-5.52899 -1.49271,-2.92299 -2.97927,-5.79679 -3.29627,-6.38138 -0.3522,-0.5628 -2.04264,-3.93026 -3.82458,-7.44269 -1.78156,-3.50759 -3.40901,-6.67005 -3.61325,-7.01518 -0.21059,-0.35221 -1.73311,-3.31751 -3.40193,-6.59271 -4.59218,-9.00975 -6.20528,-12.08426 -6.55731,-12.4935 -0.28139,-0.35221 -1.04917,-0.35221 -10.22776,-0.35221 -5.45147,0.002 -10.01924,0.0746 -10.15434,0.14909 -0.21059,0.14908 -0.28141,4.14158 -0.49385,14.61721 -0.14909,7.95329 -0.35221,19.53195 -0.42303,25.73071 -0.14908,6.1982 -0.21058,13.76853 -0.21058,16.82029 0,3.0499 -0.0559,6.44475 -0.14909,7.53512 l -0.14908,1.98618 -1.58403,1.66229 c -1.57098,1.6418 -3.49361,3.02866 -4.93749,3.56388 -0.42304,0.14908 -0.93737,0.35221 -1.16846,0.42302 -0.21058,0.0745 -0.90196,0.2814 -1.48711,0.42303 -0.5628,0.14909 -1.51509,0.35221 -2.06371,0.42303 -2.17627,0.49384 -7.38622,0.21058 -10.06005,-0.49198 -3.66245,-0.96532 -5.10634,-1.76851 -7.85751,-4.36688 l -1.81697,-1.7182 7.4e-4,-83.21518 v -83.21554 l 1.9299,-2.33839 c 1.0641,-1.28213 2.28194,-2.70477 2.71167,-3.15557 l 0.78083,-0.81624 28.38964,0.14909 c 31.57559,0.14908 37.97505,0.2814 42.84993,1.1759 1.76852,0.2814 4.06387,0.85911 5.84599,1.38836 0.63361,0.21058 1.4573,0.42302 1.80951,0.56279 1.43681,0.42303 5.1205,1.76852 5.30369,1.94407 0.14908,0.14908 0.35222,0.21058 0.49385,0.21058 0.49383,0 5.27555,2.47928 7.4097,3.8175 7.00119,4.4021 12.43515,10.88766 15.2398,18.19225 1.32499,3.45839 1.45731,3.88794 2.28901,7.38994 1.96513,8.34148 2.16229,22.87966 0.42303,31.41979 -0.14908,0.63361 -0.2814,1.47967 -0.35221,1.86654 -0.0559,0.35222 -0.21058,0.74729 -0.2814,0.81065 -0.14908,0.0559 -0.21058,0.35221 -0.21058,0.63361 0,0.2814 -0.0746,0.73237 -0.21058,1.00073 -0.0745,0.2814 -0.2814,0.87401 -0.42303,1.33804 -0.75287,2.50033 -3.35962,7.92646 -4.90917,10.2233 -4.05008,6.00103 -12.11109,13.1748 -17.53386,15.60189 -0.56279,0.2814 -1.30262,0.5628 -1.59148,0.71748 -0.98582,0.42302 -2.9651,1.85237 -3.18351,2.26087 -0.5628,1.04173 -0.21059,2.00742 3.18351,8.76898 1.03615,2.07078 2.16937,4.26829 2.5145,4.88811 0.35222,0.63362 1.35294,2.56389 2.2469,4.31769 0.8945,1.75361 1.93698,3.76103 2.32423,4.46545 0.42303,0.70442 1.40884,2.61309 2.26106,4.25414 0.85164,1.64179 1.7182,3.26103 1.92281,3.61325 0.21058,0.35221 0.97278,1.78902 1.70516,3.1906 0.73238,1.40139 1.40139,2.64849 1.48526,2.76813 0.0745,0.14909 0.85164,1.55048 1.70515,3.1906 0.85165,1.64179 1.61943,3.07096 1.70516,3.19078 0.0745,0.14909 0.90196,1.64739 1.80952,3.40193 0.91501,1.75361 2.12725,4.04988 2.69768,5.10634 0.5628,1.04918 2.14123,4.11343 3.48653,6.80385 l 2.44406,4.88812 -0.0745,1.49271 c -0.14908,1.87362 -0.35222,2.73981 -1.21877,4.41627 -2.3384,4.50068 -7.57518,8.65194 -13.34289,10.57475 -1.02124,0.35222 -2.47928,0.70443 -3.23999,0.75289 -0.76033,0.0745 -1.57098,0.14908 -1.80952,0.21057 -0.21058,0.0373 -1.12,-0.0559 -1.96493,-0.21057 z M 401.57262,189.51391 c 2.17645,-0.21059 4.51485,-0.63362 5.88829,-1.0641 2.5568,-0.80319 6.5927,-3.83166 8.87538,-6.67005 1.59894,-1.98637 3.39485,-5.41643 3.76122,-7.18998 0.95787,-4.58529 1.28958,-13.89451 0.63361,-17.22525 -0.14908,-0.49384 -0.28139,-1.52812 -0.42302,-2.23273 -0.35222,-1.64739 -1.52067,-4.89519 -2.36673,-6.44474 -1.95804,-3.60618 -5.31058,-6.65589 -9.39009,-8.55765 -3.52884,-1.64739 -2.57098,-1.57843 -22.35432,-1.58403 l -17.6507,-0.005 -0.14909,8.29358 c -0.21058,12.64276 -0.2814,40.29779 -0.0187,41.1459 0.14909,0.63361 0.35222,0.80319 1.14796,1.10509 0.49384,0.21058 1.47966,0.35221 2.11999,0.42302 0.6336,0.0147 1.59892,0.14909 2.12706,0.21059 1.33058,0.21058 25.12301,0.0745 27.85797,-0.14909 z"
     id="path864" />
</svg>
