<?xml version="1.0" encoding="UTF-8" standalone="no"?>
<svg
   id="Bold"
   viewBox="0 0 24 24"
   width="512"
   height="512"
   version="1.1"
   sodipodi:docname="calendar.svg"
   inkscape:version="1.1.2 (0a00cf5339, 2022-02-04, custom)"
   xmlns:inkscape="http://www.inkscape.org/namespaces/inkscape"
   xmlns:sodipodi="http://sodipodi.sourceforge.net/DTD/sodipodi-0.dtd"
   xmlns="http://www.w3.org/2000/svg"
   xmlns:svg="http://www.w3.org/2000/svg">
  <defs
     id="defs982" />
  <sodipodi:namedview
     id="namedview980"
     pagecolor="#ffffff"
     bordercolor="#666666"
     borderopacity="1.0"
     inkscape:pageshadow="2"
     inkscape:pageopacity="0.0"
     inkscape:pagecheckerboard="0"
     showgrid="false"
     inkscape:zoom="1.6269531"
     inkscape:cx="256"
     inkscape:cy="255.69268"
     inkscape:window-width="1920"
     inkscape:window-height="1011"
     inkscape:window-x="1920"
     inkscape:window-y="32"
     inkscape:window-maximized="1"
     inkscape:current-layer="Bold" />
  <path
     d="M18.5,2H18V1.5A1.5,1.5,0,0,0,16.5,0h0A1.5,1.5,0,0,0,15,1.5V2H9V1.5A1.5,1.5,0,0,0,7.5,0h0A1.5,1.5,0,0,0,6,1.5V2H5.5A5.5,5.5,0,0,0,0,7.5v11A5.5,5.5,0,0,0,5.5,24h13A5.5,5.5,0,0,0,24,18.5V7.5A5.5,5.5,0,0,0,18.5,2Zm0,19H5.5A2.5,2.5,0,0,1,3,18.5V10H21v8.5A2.5,2.5,0,0,1,18.5,21Z"
     id="path977"
     style="fill:#131516;fill-opacity:1" />
</svg>
