<?xml version="1.0" encoding="UTF-8" standalone="no"?>
<!-- Created with Inkscape (http://www.inkscape.org/) -->

<svg
   version="1.1"
   id="svg2"
   width="1040.4352"
   height="300"
   viewBox="0 0 1040.4352 300"
   sodipodi:docname="flirtual-black.svg"
   inkscape:export-filename="flirtual-white.png"
   inkscape:export-xdpi="320"
   inkscape:export-ydpi="320"
   inkscape:version="1.2 (dc2aeda, 2022-05-15)"
   xml:space="preserve"
   xmlns:inkscape="http://www.inkscape.org/namespaces/inkscape"
   xmlns:sodipodi="http://sodipodi.sourceforge.net/DTD/sodipodi-0.dtd"
   xmlns:xlink="http://www.w3.org/1999/xlink"
   xmlns="http://www.w3.org/2000/svg"
   xmlns:svg="http://www.w3.org/2000/svg"><defs
     id="defs6"><linearGradient
       inkscape:collect="always"
       id="linearGradient73442"><stop
         style="stop-color:#fc9caa;stop-opacity:1"
         offset="0"
         id="stop73438" /><stop
         style="stop-color:#fb7d9b;stop-opacity:1"
         offset="1"
         id="stop73440" /></linearGradient><linearGradient
       inkscape:collect="always"
       xlink:href="#linearGradient73442"
       id="linearGradient80119"
       x1="-74.717484"
       y1="62.568295"
       x2="-12.552031"
       y2="62.568295"
       gradientUnits="userSpaceOnUse" /><linearGradient
       inkscape:collect="always"
       xlink:href="#linearGradient73442"
       id="linearGradient80121"
       x1="196.72169"
       y1="92.515717"
       x2="268.45624"
       y2="92.515717"
       gradientUnits="userSpaceOnUse" /><filter
       inkscape:label="Cross Blur"
       inkscape:menu="Blurs"
       inkscape:menu-tooltip="Overlays two copies with different blur amounts and modifiable blend and composite"
       style="color-interpolation-filters:sRGB"
       id="filter80211"
       x="-0.13662365"
       y="-0.55849904"
       width="1.2732472"
       height="2.1169982"><feGaussianBlur
         stdDeviation="5"
         result="fbSourceGraphic"
         id="feGaussianBlur80203" /><feGaussianBlur
         stdDeviation="0.01"
         in="SourceGraphic"
         result="result1"
         id="feGaussianBlur80205" /><feComposite
         in2="result1"
         operator="arithmetic"
         in="fbSourceGraphic"
         k2="0.5"
         k3="0.5"
         result="result2"
         id="feComposite80207"
         k1="0"
         k4="0" /><feBlend
         in2="fbSourceGraphic"
         mode="normal"
         result="fbSourceGraphic"
         id="feBlend80209" /><feColorMatrix
         result="fbSourceGraphicAlpha"
         in="fbSourceGraphic"
         values="0 0 0 -1 0 0 0 0 -1 0 0 0 0 -1 0 0 0 0 1 0"
         id="feColorMatrix80231" /><feColorMatrix
         id="feColorMatrix80233"
         in="fbSourceGraphic"
         values="1 0 0 0 0 0 1 0 0 0 0 0 1 0 0 -0.2125 -0.7154 -0.0721 1 0 "
         result="colormatrix" /><feComposite
         in2="colormatrix"
         id="feComposite80235"
         in="fbSourceGraphic"
         operator="arithmetic"
         k2="1"
         k3="0"
         k4="0"
         result="composite"
         k1="0" /><feGaussianBlur
         id="feGaussianBlur80237"
         stdDeviation="5 0.01"
         result="blur1" /><feGaussianBlur
         id="feGaussianBlur80239"
         in="composite"
         stdDeviation="0.01 5"
         result="blur2" /><feBlend
         in2="blur1"
         id="feBlend80241"
         in="blur2"
         mode="darken"
         result="blend" /></filter><radialGradient
       inkscape:collect="always"
       xlink:href="#linearGradient73442"
       id="radialGradient71479-6"
       gradientUnits="userSpaceOnUse"
       gradientTransform="matrix(-0.41213223,0.80788665,-1.02359,-0.52217027,250.62258,47.219068)"
       cx="133.0941"
       cy="80.132103"
       fx="133.0941"
       fy="80.132103"
       r="133.42931" /><radialGradient
       inkscape:collect="always"
       xlink:href="#linearGradient73442"
       id="radialGradient1149"
       gradientUnits="userSpaceOnUse"
       gradientTransform="matrix(-0.41213223,0.80788665,-1.02359,-0.52217027,247.5047,48.969845)"
       cx="133.0941"
       cy="80.132103"
       fx="133.0941"
       fy="80.132103"
       r="133.42931" /><linearGradient
       inkscape:collect="always"
       xlink:href="#linearGradient73442"
       id="linearGradient9911"
       gradientUnits="userSpaceOnUse"
       x1="196.72169"
       y1="92.515717"
       x2="268.45624"
       y2="92.515717" /><linearGradient
       inkscape:collect="always"
       xlink:href="#linearGradient73442"
       id="linearGradient9913"
       gradientUnits="userSpaceOnUse"
       x1="196.72169"
       y1="92.515717"
       x2="268.45624"
       y2="92.515717" /><linearGradient
       inkscape:collect="always"
       xlink:href="#linearGradient73442"
       id="linearGradient9915"
       gradientUnits="userSpaceOnUse"
       x1="-74.717484"
       y1="62.568295"
       x2="-12.552031"
       y2="62.568295" /><linearGradient
       inkscape:collect="always"
       xlink:href="#linearGradient73442"
       id="linearGradient9917"
       gradientUnits="userSpaceOnUse"
       x1="-74.717484"
       y1="62.568295"
       x2="-12.552031"
       y2="62.568295" /><radialGradient
       inkscape:collect="always"
       xlink:href="#linearGradient73442"
       id="radialGradient9919"
       gradientUnits="userSpaceOnUse"
       gradientTransform="matrix(-0.41213223,0.80788665,-1.02359,-0.52217027,250.62258,47.218597)"
       cx="133.0941"
       cy="80.132103"
       fx="133.0941"
       fy="80.132103"
       r="133.42931" /></defs><sodipodi:namedview
     id="namedview4"
     pagecolor="#000000"
     bordercolor="#666666"
     borderopacity="1.0"
     inkscape:pageshadow="2"
     inkscape:pageopacity="0"
     inkscape:pagecheckerboard="true"
     showgrid="true"
     width="48px"
     showguides="true"
     inkscape:zoom="0.64689728"
     inkscape:cx="498.53355"
     inkscape:cy="225.69271"
     inkscape:window-width="1920"
     inkscape:window-height="942"
     inkscape:window-x="0"
     inkscape:window-y="25"
     inkscape:window-maximized="0"
     inkscape:current-layer="text1604"
     inkscape:showpageshadow="2"
     inkscape:deskcolor="#d1d1d1" /><g
     inkscape:groupmode="layer"
     inkscape:label="Image"
     id="g8"><g
       aria-label="flirtual"
       id="text1604"
       style="font-size:50.8px;line-height:1.25;fill:#131516;fill-opacity:1;stroke-width:0.264583"
       transform="matrix(3.7795276,0,0,3.7795276,252.98471,-328.94641)"><path
         d="m 26.574129,117.25587 -0.762,4.9276 h 3.5052 l -5.0292,31.6484 h 6.1976 l 5.0292,-31.6484 h 6.096 l 0.762,-4.9276 h -6.35 l 0.3048,-1.9304 c 0.508,-2.9972 2.5908,-4.6228 5.5372,-4.6228 1.2192,0 2.1336,0.2032 2.54,0.3048 l 0.8128,-5.2832 c -0.4064,-0.1016 -1.6256,-0.3048 -3.2004,-0.3048 -6.2992,0 -10.414,3.6576 -11.3284,9.2964 l -0.4064,2.54 z"
         style="font-style:italic;font-weight:500;font-family:'Brother 1816';-inkscape-font-specification:'Brother 1816, Medium Italic';fill:#131516;fill-opacity:1"
         id="path10056" /><path
         d="m 44.150949,135.74707 c -0.9144,5.4864 1.9304,7.5692 5.9944,7.5692 2.0828,0 3.6576,-0.4064 4.2164,-0.6096 l 0.8128,-5.1816 c -0.4064,0.1524 -1.4224,0.4064 -2.4384,0.4064 -1.8288,0 -2.5908,-0.9652 -2.1844,-3.5052 l 4.4704,-28.3464 h -6.1976 z"
         style="font-style:italic;font-weight:500;font-family:'Brother 1816';-inkscape-font-specification:'Brother 1816, Medium Italic';fill:#131516;fill-opacity:1"
         id="path10058" /><path
         d="m 63.454975,117.25587 -4.0132,25.4 h 6.1976 l 4.0132,-25.4 z m 0.6096,-6.7564 c 0,1.7272 1.1684,2.8956 3.0988,2.8956 2.3876,0 4.2164,-1.6256 4.2164,-4.0132 0,-1.778 -1.2192,-2.9464 -3.0988,-2.9464 -2.4384,0 -4.2164,1.6256 -4.2164,4.064 z"
         style="font-style:italic;font-weight:500;font-family:'Brother 1816';-inkscape-font-specification:'Brother 1816, Medium Italic';fill:#131516;fill-opacity:1"
         id="path10060" /><path
         d="m 73.564221,142.65587 h 6.1976 l 1.7272,-10.922 c 0.762,-4.7752 4.4704,-9.1948 8.8392,-9.1948 0.8128,0 1.3208,0.2032 1.4732,0.2032 l 0.9652,-5.9944 c -0.1524,-0.0508 -0.8128,-0.1524 -1.5748,-0.1524 -3.5052,0 -6.5024,2.3368 -8.5852,5.4356 0,0 0,-0.254 0,-0.3556 0,-0.9652 0.5588,-3.4036 0.6604,-4.4196 h -5.6896 z"
         style="font-style:italic;font-weight:500;font-family:'Brother 1816';-inkscape-font-specification:'Brother 1816, Medium Italic';fill:#131516;fill-opacity:1"
         id="path10062" /><path
         d="m 95.509815,117.25587 -0.762,4.9276 h 3.8608 l -1.778,11.2268 c -0.1524,0.8636 -0.254,1.7272 -0.3556,2.54 -0.5588,5.4864 2.9972,7.366 6.857995,7.366 2.7432,0 5.0292,-0.5588 6.2992,-1.1684 l 0.8128,-5.1816 c -1.3716,0.5588 -3.2004,1.0668 -4.7752,1.0668 -1.8796,0 -3.302,-1.0668 -2.794,-4.2164 l 1.8288,-11.6332 h 7.2136 l 0.762,-4.9276 h -7.2136 l 1.2192,-7.62 h -5.9944 l -1.219195,7.62 z"
         style="font-style:italic;font-weight:500;font-family:'Brother 1816';-inkscape-font-specification:'Brother 1816, Medium Italic';fill:#131516;fill-opacity:1"
         id="path10064" /><path
         d="m 137.1658,142.65587 4.0132,-25.4 h -6.1468 l -1.9812,12.5984 c -0.7112,4.4704 -4.1656,7.8232 -8.2804,7.8232 -3.4544,0 -3.7084,-2.5908 -3.2512,-5.588 l 2.3368,-14.8336 h -6.1976 l -2.4892,15.9004 c -1.0668,6.5532 1.1684,10.16 7.112,10.16 4.7244,0 8.5852,-3.4036 9.9568,-5.7404 h 0.1016 c -0.1016,0.2032 -0.3556,0.8636 -0.508,1.8796 l -0.3556,3.2004 z"
         style="font-style:italic;font-weight:500;font-family:'Brother 1816';-inkscape-font-specification:'Brother 1816, Medium Italic';fill:#131516;fill-opacity:1"
         id="path10066" /><path
         d="m 159.46697,121.87867 c 2.9972,0 5.842,2.1844 5.842,6.6548 0,6.35 -4.572,9.4996 -8.4328,9.4996 -3.556,0 -5.7912,-2.7432 -5.7912,-6.6548 0,-5.4356 3.7084,-9.4996 8.382,-9.4996 z m 14.0716,-4.6228 h -5.6896 l -0.4572,2.3876 c -0.254,1.0668 -0.2032,1.778 -0.2032,1.778 h -0.1016 c -0.8128,-2.54 -4.0132,-4.826 -7.9248,-4.826 -7.4168,0 -14.0716,6.2484 -14.0716,15.5956 0,6.7564 4.064,11.1252 9.8552,11.1252 4.0132,0 7.8232,-2.3876 9.4996,-5.08 h 0.1016 c 0,0 -0.254,0.7112 -0.4064,1.778 l -0.3048,2.6416 h 5.6896 z"
         style="font-style:italic;font-weight:500;font-family:'Brother 1816';-inkscape-font-specification:'Brother 1816, Medium Italic';fill:#131516;fill-opacity:1"
         id="path10068" /><path
         d="m 178.46621,135.74707 c -0.9144,5.4864 1.9304,7.5692 5.9944,7.5692 2.0828,0 3.6576,-0.4064 4.2164,-0.6096 l 0.8128,-5.1816 c -0.4064,0.1524 -1.4224,0.4064 -2.4384,0.4064 -1.8288,0 -2.5908,-0.9652 -2.1844,-3.5052 l 4.4704,-28.3464 h -6.1976 z"
         style="font-style:italic;font-weight:500;font-family:'Brother 1816';-inkscape-font-specification:'Brother 1816, Medium Italic';fill:#131516;fill-opacity:1"
         id="path10070" /></g><g
       id="g17962"
       transform="translate(-1.5885139,-1.9695163)" /><g
       id="g5925"
       transform="matrix(0.91269175,0,0,0.91269175,54.206265,9.2439602)"><g
         id="g46692"
         transform="translate(-19.214889,8.0304837)"
         style="fill:url(#linearGradient80121);fill-opacity:1"><path
           style="fill:url(#linearGradient9911);fill-opacity:1;stroke:#ffffff;stroke-width:4;stroke-miterlimit:4;stroke-dasharray:none"
           d="m 198.7217,85.399251 c 0,-1.423335 11.30256,-11.896587 18.76128,-17.384701 8.43326,-6.205183 22.43951,-14.11573 24.99302,-14.11573 5.63,0 19.16442,37.239507 22.62241,62.2448 0.90857,6.57006 1.49495,12.41655 1.30307,12.99221 C 250.62335,110.60228 234.20466,92.44225 198.7217,85.399251 Z"
           id="path45669"
           sodipodi:nodetypes="cssscc" /><path
           style="fill:url(#linearGradient9913);fill-opacity:1;stroke:#ffffff;stroke-width:2;stroke-miterlimit:4;stroke-dasharray:none"
           d="m 218.02599,89.368079 c -0.91691,-0.82543 7.18399,-9.585879 12.56378,-13.546259 5.59855,-4.121421 6.0434,-4.276461 7.7747,-2.70965 3.41063,3.08657 11.15144,27.76433 11.15144,35.29142 -3.27751,-0.36722 -22.33649,-14.149074 -31.48992,-19.035511 z"
           id="path46633"
           sodipodi:nodetypes="csscc" /></g><g
         id="g47905"
         transform="translate(76.077142,80.310151)"
         style="fill:url(#linearGradient80119);fill-opacity:1"><path
           style="fill:url(#linearGradient9915);fill-opacity:1;stroke:#ffffff;stroke-width:4;stroke-miterlimit:4;stroke-dasharray:none"
           d="m -60.666416,91.240566 c -7.614776,-12.493553 -12.05082,-40.90673 -12.05082,-54.24196 0,-10.22912 0.7118,-11.25833 7.78518,-11.25683 12.22544,0.003 46.132698,5.47594 50.412488,7.81152 -16.880725,16.635727 -31.817596,36.558217 -42.57409,63.54909 z"
           id="path46776"
           sodipodi:nodetypes="sscccs" /><path
           style="fill:url(#linearGradient9917);fill-opacity:1;stroke:#ffffff;stroke-width:2;stroke-miterlimit:4;stroke-dasharray:none"
           d="m -53.268694,71.666359 c -2.712832,-4.670071 -5.20276,-15.8053 -5.20276,-20.63475 0,-2.64418 0.55918,-3.95019 2.02785,-4.7362 2.46395,-1.31866 26.375347,-1.422607 27.630807,-0.161187 -5.629906,7.403183 -13.3889,20.069136 -21.717024,30.247036 z"
           id="path46774"
           sodipodi:nodetypes="sssccs" /></g><path
         d="m 253.38408,150.25644 c -1.75036,0.0339 1.06671,7.33823 1.06671,14.11984 0,3.78633 -0.70467,8.75497 -1.59151,11.7423 -1.79647,6.05143 -9.14803,18.54841 -10.72637,19.52388 -0.56231,0.34753 -1.10928,-0.0758 -1.10928,0.99178 0,2.67891 7.97433,4.51439 10.6868,1.58758 3.0321,-3.27169 8.7116,-18.41164 10.82536,-27.99318 1.39341,-6.31623 -0.0111,-10.08866 -0.98436,-12.43832 -1.00625,-2.42932 -6.36764,-7.56877 -8.16735,-7.53388 z"
         style="fill:url(#radialGradient1149);fill-opacity:1;stroke:#ffffff;stroke-width:4;stroke-miterlimit:4;stroke-dasharray:none;stroke-opacity:1"
         id="path1135"
         sodipodi:nodetypes="sssssssss" /><path
         style="fill:url(#radialGradient9919);fill-opacity:1;stroke:#ffffff;stroke-width:4;stroke-miterlimit:4;stroke-dasharray:none;stroke-opacity:1"
         d="m 44.003706,234.9519 c -11.19229,-7.77507 -19.76798,-21.45273 -24.20008,-38.59751 -3.14599,-12.16969 -1.84673,-21.15924 5.14046,-35.56639 1.198713,-2.47167 2.398694,-4.81859 3.617636,-7.06345 4.960663,-9.13575 10.23537,-16.58106 17.016689,-23.86459 3.882448,-4.16997 8.258745,-8.28692 13.352675,-12.63771 29.609258,-25.289645 65.202484,-35.969266 100.693994,-30.212886 19.04445,3.08883 46.95527,13.309066 59.02568,21.613726 6.64383,4.57108 19.56671,17.06133 26.09662,25.22296 7.18682,8.9827 9.25633,15.00605 9.25633,26.94079 0,11.00841 -1.86809,18.9816 -6.38108,27.23508 -4.48637,8.20481 -8.09412,10.49906 -16.5168,10.50342 -8.68391,0.004 -27.00341,1.64618 -40.10212,3.59371 -21.01801,3.12498 -60.03303,12.38141 -78,18.50573 -39.820064,13.57329 -43.988644,14.72875 -55.627764,15.41903 -9.38072,0.55634 -11.21521,0.40654 -13.37224,-1.09191 z"
         id="path16749"
         sodipodi:nodetypes="ssssssssssscssss" /><path
         id="path16323"
         style="fill:url(#radialGradient71479-6);fill-opacity:1;stroke:#ffffff;stroke-width:4;stroke-miterlimit:4;stroke-dasharray:none;stroke-opacity:1"
         d="m 18.438713,190.55011 c -0.42085,0 -5.021357,10.24966 -7.419037,16.71216 -7.2333796,19.4963 -6.0816296,24.93651 7.37109,34.83984 3.84739,2.83229 7.03195,4.41016 8.90235,4.41016 1.6017,0 6.61533,-1.86232 11.14062,-4.13867 7.3132,-3.67875 9.494209,-6.04539 7.513866,-6.36128 -12.521416,-1.99733 -22.791396,-21.07757 -26.814646,-33.58989 -1.22221,-3.80108 -0.273383,-11.87232 -0.694243,-11.87232 z"
         sodipodi:nodetypes="ssssssss"
         inkscape:export-filename="flirtual-cat-draft-shorteye.png"
         inkscape:export-xdpi="359.74103"
         inkscape:export-ydpi="359.74103" /><g
         id="g5844"
         transform="translate(-19.346317)"><path
           style="fill:#faa7b7"
           d="m 98.350022,182.53066 c 4.124998,-0.55247 12.383968,-1.27691 18.353268,-1.60988 8.79348,-0.4905 11.21324,-0.96537 12.75,-2.50213 2.65579,-2.65579 2.38297,-7.16541 -0.65166,-10.77187 -3.04966,-3.62431 -25.11811,-14.815 -30.954508,-15.69672 -5.40062,-0.81589 -9.4971,2.21298 -9.4971,7.022 0,4.08247 1.23413,5.15206 7.54089,6.53544 7.405188,1.62432 8.543818,2.06834 7.914608,3.08642 -0.31544,0.5104 -1.8153,0.928 -3.33302,0.928 -1.517708,0 -5.070228,0.68622 -7.894488,1.52493 -5.89884,1.75177 -8.93331,4.16975 -7.29228,5.81078 0.58536,0.58536 1.06429,2.02429 1.06429,3.19762 0,3.88729 0.57402,4.0057 12,2.47541 z"
           id="path16755" /><path
           style="fill:#faa7b7"
           d="m 145.80457,208.06737 c -2.09054,-2.09053 -2.45236,-3.38816 -2.43981,-8.75 0.0182,-7.78954 1.56415,-11.10689 5.51223,-11.82867 2.82774,-0.51697 2.85883,-0.57484 0.63606,-1.18428 -3.5041,-0.96075 -2.37404,-3.61721 3.20921,-7.54395 l 4.87224,-3.42668 5.12776,1.42148 c 5.11127,1.41691 5.12865,1.43571 5.4052,5.84407 0.15259,2.43242 -0.32358,6.44758 -1.05816,8.92258 -1.12206,3.78049 -1.733,4.49626 -3.82099,4.47661 -2.16551,-0.0204 -2.43174,0.34213 -2.06856,2.81661 0.49438,3.36846 -3.46729,8.15622 -8.54761,10.32994 -4.13558,1.7695 -3.95128,1.79859 -6.82757,-1.07771 z"
           id="path16753" /><path
           style="fill:#ffffff"
           d="m 154.14968,210.10213 c 4.36582,-2.29548 10.724,-9.69366 12.96521,-15.08591 1.14429,-2.75314 2.39261,-7.76405 2.77403,-11.13537 0.64207,-5.6751 1.01858,-6.4014 5.0773,-9.79407 4.31017,-3.60285 5.26085,-6.11574 3.77681,-9.98307 -0.65005,-1.694 -1.64667,-3.19392 -4.34361,-3.28163 1.85921,1.97736 2.38787,3.61954 2.60563,4.96145 0.80337,4.95055 -5.42343,8.51616 -12.65257,8.39102 -3.10537,-0.0538 -7.20185,-3.00738 -7.20185,-3.00738 0,0 -2.80615,3.21858 -4.76995,4.12956 -3.93187,1.82396 -6.7004,1.74417 -8.57162,0.1912 -0.88294,-0.73278 -2.44654,-2.51684 -2.12426,-5.29869 l 0.59865,-5.16732 -1.77595,2.88893 c -1.50159,2.44263 -1.47878,6.47944 0.85849,9.5623 l 2.47304,2.51206 -1.90433,7.84563 c -4.13691,17.04365 1.6616,27.82006 12.21495,22.27129 z"
           id="path16751"
           sodipodi:nodetypes="ssssscsscssscsscsss" /><path
           style="fill:#db647e;fill-opacity:1"
           d="m 145.16653,184.88661 0.51482,-4.7484 c 3.63466,0.35166 9.12897,-2.07878 11.91315,-4.80442 2.21979,1.42161 4.82195,2.32862 6.54035,2.58631 2.36472,0.35462 4.39008,-0.39466 4.39008,-0.39466 0.91676,5.08744 -0.95396,15.78728 -3.86603,18.95562 -4.81175,-4.70171 -9.94162,-8.78834 -19.49237,-11.59445 z"
           id="path17237"
           sodipodi:nodetypes="cccsccc" /><path
           style="fill:#ed5073;fill-opacity:1"
           d="m 146.08206,209.22126 c -7.54252,-4.96387 -2.25969,-23.39329 -1.32291,-23.20689 7.98134,1.16274 14.65986,6.01705 18.74236,12.06135 -1.46077,4.46574 -11.02267,15.00133 -17.41945,11.14554 z"
           id="path17235"
           sodipodi:nodetypes="cccc" /><g
           id="g416"
           transform="matrix(0.85444007,0,0,0.76960985,25.41354,38.25758)"><path
             style="fill:#faa7b7"
             d="m 212.80123,172.97955 c 3.08944,-2.86319 3.09403,-0.24163 -0.0547,-31.29145 -1.87204,-18.46031 -3.00953,-23.55283 -6.07453,-27.19537 -2.6985,-3.20699 -7.52606,-4.00233 -11.47274,-1.89013 -5.58775,2.99048 -7.55525,18.44852 -4.22848,33.22191 2.13953,9.50117 7.94386,23.93558 10.91335,27.13971 3.09932,3.34422 7.31878,3.35015 10.9171,0.0153 z"
             id="path16757" /><path
             style="fill:#ffffff"
             d="m 211.61199,174.42245 c 4.24814,-3.34159 4.76534,-5.11916 3.67649,-12.63574 -0.54072,-3.73269 -1.48444,-13.02065 -2.09714,-20.6399 -1.42544,-17.72588 -3.07462,-24.31506 -6.9822,-27.89681 -6.07139,-5.56514 -14.35917,-2.21008 -16.86876,6.8288 -4.67989,16.85572 7.70793,56.4212 17.66529,56.4212 1.08083,0 3.15367,-0.9349 4.60632,-2.07755 z"
             id="path17241" /></g><path
           style="fill:#ffffff"
           d="m 97.740525,183.01521 c 4.400005,-0.79499 12.409855,-1.46113 17.799665,-1.48032 14.05475,-0.05 16.44304,-1.56395 15.83066,-10.03489 -0.27274,-3.77273 -6.17901,-8.37717 -18.55926,-14.4685 -13.792965,-6.78642 -17.262265,-7.5035 -22.034155,-4.55431 -3.1788,1.96461 -3.53691,2.62973 -3.53691,6.56919 0,5.09675 0.68218,5.63502 9.5,7.4959 l 6.000005,1.26622 -3.500005,0.842 c -9.2288,2.22016 -14.06532,4.10304 -14.99328,5.83694 -0.67561,1.26239 -0.67874,2.09723 -0.009,2.51089 0.55146,0.34084 1.00268,1.62815 1.00268,2.86069 0,2.37522 1.70126,4.65407 3.45,4.62131 0.5775,-0.0108 4.65,-0.67013 9.05,-1.46512 z"
           id="path17239"
           inkscape:export-filename="flirtual-cat-draft-shorteye.png"
           inkscape:export-xdpi="376.99686"
           inkscape:export-ydpi="376.99686" /></g></g></g></svg>
