<svg viewBox="0 0 1040.4 300" xml:space="preserve" xmlns="http://www.w3.org/2000/svg" xmlns:xlink="http://www.w3.org/1999/xlink">
  <defs>
    <linearGradient id="a">
      <stop stop-color="#fc9caa" offset="0"/>
      <stop stop-color="#fb7d9b" offset="1"/>
    </linearGradient>
    <linearGradient id="i" x1="88.992" x2="983.85" y1="79.928" y2="223.3" gradientTransform="matrix(.9624 0 0 .9947 3.172 0)" gradientUnits="userSpaceOnUse"><stop stop-color="#ff8975" offset="0"/><stop stop-color="#e9658b" offset="1"/></linearGradient>
    <linearGradient id="h" x1="196.72" x2="268.46" y1="92.516" y2="92.516" gradientTransform="translate(-19.215 8.0305)" gradientUnits="userSpaceOnUse" xlink:href="#a"/>
    <linearGradient id="b" x1="-74.718" x2="-12.552" y1="62.568" y2="62.568" gradientTransform="translate(76.077 80.31)" gradientUnits="userSpaceOnUse" xlink:href="#a"/>
    <radialGradient id="g" cx="133.09" cy="80.132" r="133.43" gradientTransform="matrix(-.4121 .8079 -1.0236 -.5222 247.5 48.97)" gradientUnits="userSpaceOnUse" xlink:href="#a"/>
    <radialGradient id="f" cx="133.09" cy="80.132" r="133.43" gradientTransform="matrix(-.4121 .8079 -1.0236 -.5222 250.62 47.219)" gradientUnits="userSpaceOnUse" xlink:href="#a"/>
    <radialGradient id="e" cx="133.09" cy="80.132" r="133.43" gradientTransform="matrix(-.4121 .8079 -1.0236 -.5222 250.62 47.219)" gradientUnits="userSpaceOnUse" xlink:href="#a"/>
  </defs>
  <path d="M0 0h1040.4352v300H0z" fill="url(#i)"/>
  <path transform="translate(252.98 -328.95) scale(3.7795)" d="m26.5741 117.2559-.762 4.9276h3.5052l-5.0292 31.6484h6.1976l5.0292-31.6484h6.096l.762-4.9276h-6.35l.3048-1.9304c.508-2.9972 2.5908-4.6228 5.5372-4.6228 1.2192 0 2.1336.2032 2.54.3048l.8128-5.2832c-.4064-.1016-1.6256-.3048-3.2004-.3048-6.2992 0-10.414 3.6576-11.3284 9.2964l-.4064 2.54zM44.151 135.747c-.9145 5.4865 1.9303 7.5693 5.9943 7.5693 2.0828 0 3.6576-.4064 4.2164-.6096l.8128-5.1816c-.4064.1524-1.4224.4064-2.4384.4064-1.8288 0-2.5908-.9652-2.1844-3.5052l4.4704-28.3464h-6.1976zm19.304-18.4911-4.0132 25.4h6.1976l4.0132-25.4zm.6096-6.7564c0 1.7272 1.1684 2.8956 3.0988 2.8956 2.3876 0 4.2164-1.6256 4.2164-4.0132 0-1.778-1.2192-2.9464-3.0988-2.9464-2.4384 0-4.2164 1.6256-4.2164 4.064zm9.4996 32.1564h6.1976l1.7272-10.922c.762-4.7752 4.4704-9.1948 8.8392-9.1948.8128 0 1.3208.2032 1.4732.2032l.9652-5.9944c-.1524-.0508-.8128-.1524-1.5748-.1524-3.5052 0-6.5024 2.3368-8.5852 5.4356v-.3556c0-.9652.5588-3.4036.6604-4.4196h-5.6896zm21.9456-25.4-.762 4.9276h3.8608l-1.778 11.2268c-.1524.8636-.254 1.7272-.3556 2.54-.5588 5.4864 2.9972 7.366 6.858 7.366 2.7432 0 5.0292-.5588 6.2992-1.1684l.8128-5.1816c-1.3716.5588-3.2004 1.0668-4.7752 1.0668-1.8796 0-3.302-1.0668-2.794-4.2164l1.8288-11.6332h7.2136l.762-4.9276h-7.2136l1.2192-7.62h-5.9944l-1.2192 7.62zm41.656 25.4 4.0132-25.4h-6.1468l-1.9812 12.5984c-.7112 4.4704-4.1656 7.8232-8.2804 7.8232-3.4544 0-3.7084-2.5908-3.2512-5.588l2.3368-14.8336h-6.1976l-2.4892 15.9004c-1.0668 6.5532 1.1684 10.16 7.112 10.16 4.7244 0 8.5852-3.4036 9.9568-5.7404h.1016c-.1016.2032-.3556.8636-.508 1.8796l-.3556 3.2004zm22.3012-20.7772c2.9972 0 5.842 2.1844 5.842 6.6548 0 6.35-4.572 9.4996-8.4328 9.4996-3.556 0-5.7912-2.7432-5.7912-6.6548 0-5.4356 3.7084-9.4996 8.382-9.4996zm14.0716-4.6228h-5.6896l-.4572 2.3876c-.254 1.0668-.2032 1.778-.2032 1.778h-.1016c-.8128-2.54-4.0132-4.826-7.9248-4.826-7.4168 0-14.0716 6.2484-14.0716 15.5956 0 6.7564 4.064 11.1252 9.8552 11.1252 4.0132 0 7.8232-2.3876 9.4996-5.08h.1016s-.254.7112-.4064 1.778l-.3048 2.6416h5.6896zm4.9276 18.4911c-.9144 5.4865 1.9304 7.5693 5.9944 7.5693 2.0828 0 3.6576-.4064 4.2164-.6096l.8128-5.1816c-.4064.1524-1.4224.4064-2.4384.4064-1.8288 0-2.5908-.9652-2.1844-3.5052l4.4704-28.3464h-6.1976z" fill="snow" font-family="Brother 1816" font-size="50.8" font-style="italic" font-weight="500" aria-label="flirtual"/>
  <path transform="matrix(.913 0 0 .913 53.959 9.1935)" d="m179.51 93.43c0-1.4233 11.303-11.897 18.761-17.385 8.4332-6.2051 22.44-14.116 24.993-14.116 5.63 0 19.164 37.24 22.622 62.245 0.9086 6.57 1.495 12.416 1.303 12.992-15.778-18.534-32.197-36.694-67.68-43.737z" fill="url(#h)" stroke="#fff" stroke-width="4"/>
  <path d="m234.82 98.718c-0.8371-0.7537 7.2218-9.3485 12.134-12.964 5.1116-3.763 5.5178-3.9045 7.0985-2.474 3.114 2.8181 10.583 28.496 11.186 35.368-2.9925-0.3353-22.06-15.468-30.418-19.93z" fill="none" stroke="#fff" stroke-width="2.4926"/>
  <path transform="matrix(.913 0 0 .913 53.959 9.1935)" d="m15.411 171.55c-7.6147-12.494-12.051-40.907-12.051-54.242 0-10.229 0.7118-11.258 7.7852-11.257 12.225 3e-3 46.133 5.476 50.412 7.8115-16.881 16.636-31.818 36.558-42.574 63.549z" fill="url(#b)" stroke="#fff" stroke-width="4"/>
  <path transform="matrix(.913 0 0 .913 53.959 9.1935)" d="m22.808 151.98c-2.1033-4.9744-5.2027-19.982-5.2027-24.812 0-2.6442 0.5592-3.9502 2.0278-4.7362 2.464-1.3187 28.553 2.7544 29.808 4.0159-5.6298 7.4032-15.566 21.832-23.894 32.01z" fill="url(#b)" stroke="#fff" stroke-width="2.7301"/>
  <path transform="matrix(.913 0 0 .913 53.959 9.1935)" d="m253.38 150.26c-1.7503 0.034 1.0668 7.3383 1.0668 14.12 0 3.7863-0.7047 8.755-1.5915 11.742-1.7965 6.0514-9.148 18.548-10.726 19.524-0.5623 0.3475-1.1093-0.0758-1.1093 0.9917 0 2.679 7.2303 5.3173 10.687 1.5876 3.0321-3.2717 8.7116-18.412 10.825-27.993 1.3934-6.3162-0.0111-10.089-0.9844-12.438-1.0062-2.4293-6.3676-7.5687-8.1673-7.5339z" fill="url(#g)" stroke="#fff" stroke-width="4"/>
  <path transform="matrix(.913 0 0 .913 53.959 9.1935)" d="m43.433 234.57c-11.192-7.7751-19.197-21.072-23.629-38.217-3.146-12.17-1.8467-21.159 5.1405-35.566 1.1987-2.4717 2.3987-4.8186 3.6176-7.0634 4.9607-9.1358 10.235-16.581 17.017-23.865 3.8825-4.17 8.2588-8.287 13.353-12.638 29.609-25.29 65.202-35.969 100.69-30.213 19.044 3.0889 43.229 11.598 58.535 21.982 8.7042 5.9052 20.058 16.693 26.588 24.855 7.1868 8.9827 9.2563 15.006 9.2563 26.941 0 11.008-1.868 18.982-6.381 27.235-4.4864 8.2048-8.0942 10.499-16.517 10.503-8.6839 4e-3 -27.003 1.6462-40.102 3.5938-21.018 3.125-60.033 12.381-78 18.506-39.82 13.573-43.989 14.729-55.628 15.419-9.3807 0.5564-11.215-0.069-13.943-1.4723z" fill="url(#f)" stroke="#fff" stroke-width="4"/>
  <path transform="matrix(.913 0 0 .913 53.959 9.1935)" d="m18.439 190.55c-0.4208 0-5.0213 10.25-7.419 16.712-7.2334 19.496-6.0817 24.936 7.371 34.84 3.8475 2.8323 7.032 4.4102 8.9024 4.4102 2.9384 0 6.6153-1.8624 11.141-4.1387 7.3132-3.6787 9.4942-6.0454 7.5139-6.3613-12.521-1.9973-22.791-21.078-26.815-33.59-1.2223-3.801-0.2734-11.872-0.6943-11.872z" fill="url(#e)" stroke="#fff" stroke-width="4"/>
  <path d="m180.18 165.38c-3.015 2.9516-8.9647 5.5829-12.901 5.202l-1.286 4.9796-0.0135 0.049c-0.0654 0.219-5.595 19.182 2.4987 24.508 6.916 4.1688 16.257-5.8546 19.929-13.186 3.1834-6.4754 4.243-13.313 3.6094-19.182 0 0-2.194 0.8112-4.7548 0.4272-1.8608-0.279-4.6784-1.2596-7.0822-2.799z" fill="#fff"/>
  <path d="m170.3 197.1c-6.1557-4.0513-1.862-18.588-1.876-18.537 6.1697 1.2931 12.429 4.8522 16.062 9.441-2.0097 3.8167-8.965 12.243-14.186 9.0962z" fill="#ed5073"/>
  <path d="m165.8 162.43s-3.376 4.6507 1.1066 7.555c2.373 1.5376 7.8785 0.7488 12.918-4.0753 4.3015 3.1283 8.4382 3.8021 12.292 1.398 5.911-3.6872 1.8998-8.4298 1.8998-8.4298" fill="none" stroke="#fff" stroke-linecap="round" stroke-linejoin="round" stroke-width="3.7967"/>
  <path d="m168.9713 176.0627.9924-3.8392c3.0055.2908 7.5487-1.719 9.8509-3.9728 1.8355 1.1756 3.9872 1.9256 5.4081 2.1386 1.9554.2933 3.6302-.3263 3.6302-.3263.4837 4.4811-.3244 9.7028-3.144 15.7178-4.7634-5.0648-9.1017-7.703-16.7376-9.7181z" fill="#db647e"/>
  <g fill="#fff">
    <path d="M125.4278 174.382c3.612-.891 7.9742-2.1846 16.0594-2.3519 12.1615-.0456 15.0015.2027 14.4423-7.5315 0 0-.6595-7.2403-4.5333-3.7955-8.5619-.43-16.7428-.7452-24.8027 1.1938-8.4262 2.027-12.8421 3.7462-13.6894 5.3293-1.0614 2.0844.5461 5.1753.5461 5.1753s1.9145 3.9785 3.5111 3.9486c3.1341-.4324 5.9417-1.3453 8.4665-1.968z"/>
    <path d="m123.94 158.9c3.7105 1.248 8.6051 2.1096 14.808 5.469 11.216 6.2352 13.498 7.7996 16.793 0.7797 0 0 0.8014-4.0409-2.4386-6.6613-3.6298-3.088-9.5738-7.9791-20.178-10.86-8.6814-2.0121-14.734-2.105-16.248-1.1384-1.9452 1.2992-2.047 4.6879-2.047 4.6879s-0.2829 4.5 1.1244 5.2547c2.9453 1.1554 5.7283 1.6193 8.186 2.4689z"/>
  </g>
  <path d="m225.07 156.06c-0.2279-2.6468-0.9766-9.1705-1.3484-14.533-0.865-12.475-2.0597-17.13-5.0577-19.707-4.658-4.0035-10.824-1.65-13.252 4.5369-2.816 7.174 0.5541 41.154 11.465 40.158 8.0258-0.7328 8.8007-3.3993 8.1931-10.455z" fill="#fff"/>
</svg>
