<?xml version="1.0" encoding="UTF-8" standalone="no"?>
<svg
   version="1.0"
   width="840.47278pt"
   height="592.95654pt"
   viewBox="0 0 840.47278 592.95654"
   preserveAspectRatio="xMidYMid"
   id="svg5883"
   sodipodi:docname="flirtual-mark-black.svg"
   inkscape:export-filename="../../Google Drive/My Drive/Design/Flirtual/New Logo/flirtual-mark-black.png"
   inkscape:export-xdpi="85.666069"
   inkscape:export-ydpi="85.666069"
   inkscape:version="1.2 (dc2aeda, 2022-05-15)"
   xmlns:inkscape="http://www.inkscape.org/namespaces/inkscape"
   xmlns:sodipodi="http://sodipodi.sourceforge.net/DTD/sodipodi-0.dtd"
   xmlns="http://www.w3.org/2000/svg"
   xmlns:svg="http://www.w3.org/2000/svg">
  <defs
     id="defs5887" />
  <sodipodi:namedview
     id="namedview5885"
     pagecolor="#ffffff"
     bordercolor="#000000"
     borderopacity="0.25"
     inkscape:showpageshadow="2"
     inkscape:pageopacity="0.0"
     inkscape:pagecheckerboard="0"
     inkscape:deskcolor="#d1d1d1"
     inkscape:document-units="pt"
     showgrid="false"
     inkscape:zoom="0.65322581"
     inkscape:cx="360.51852"
     inkscape:cy="402.61728"
     inkscape:window-width="1920"
     inkscape:window-height="942"
     inkscape:window-x="0"
     inkscape:window-y="25"
     inkscape:window-maximized="1"
     inkscape:current-layer="svg5883" />
  <metadata
     id="metadata5861">
Created by potrace 1.14, written by Peter Selinger 2001-2017
</metadata>
  <g
     transform="matrix(0.1,0,0,-0.1,-14.056814,729.7169)"
     fill="#000000"
     stroke="none"
     id="g5881"
     style="fill:#131516;fill-opacity:1">
    <path
       d="m 7195,7262 c -185,-89 -491,-276 -679,-416 -121,-89 -277,-222 -406,-343 -76,-71 -92,-93 -70,-93 5,0 97,-32 202,-71 106,-39 202,-73 213,-75 15,-3 31,11 65,57 106,143 431,427 545,474 103,44 174,-45 294,-368 93,-250 192,-625 207,-782 l 6,-70 157,-160 c 87,-88 183,-189 214,-224 31,-36 57,-58 57,-50 0,9 -7,67 -15,130 -73,551 -299,1322 -521,1774 -78,160 -138,248 -169,252 -11,2 -56,-14 -100,-35 z"
       id="path5863"
       style="fill:#131516;fill-opacity:1" />
    <path
       d="m 7060,6712 c -75,-49 -176,-128 -250,-193 -91,-80 -260,-265 -260,-284 0,-7 44,-31 98,-55 152,-67 401,-195 488,-251 86,-56 182,-130 287,-222 78,-69 77,-72 42,96 -52,250 -180,647 -262,812 -57,114 -87,135 -143,97 z"
       id="path5865"
       style="fill:#131516;fill-opacity:1" />
    <path
       d="M 4395,6524 C 3922,6487 3576,6410 3180,6253 2596,6022 2050,5648 1560,5144 1283,4859 1085,4575 886,4180 711,3835 642,3626 625,3395 c -25,-337 166,-903 431,-1277 71,-99 285,-317 368,-373 56,-37 63,-39 152,-43 51,-3 168,1 261,7 368,26 465,51 1453,381 755,252 1070,342 1798,510 921,212 1595,309 2362,340 270,11 325,21 403,73 111,74 255,321 322,554 99,341 94,814 -11,1065 -86,206 -352,529 -702,851 -275,254 -374,326 -620,451 -553,280 -1290,508 -1847,571 -128,15 -503,27 -600,19 z M 5897,5324 c 95,-46 156,-140 193,-298 27,-116 36,-179 65,-466 14,-140 37,-343 51,-451 30,-228 27,-255 -37,-324 -50,-55 -144,-105 -196,-105 -133,0 -292,226 -413,589 -73,218 -100,362 -107,561 -4,131 -2,179 11,233 56,239 244,352 433,261 z M 2661,4411 c 47,-17 124,-48 170,-69 46,-22 120,-56 164,-77 44,-20 134,-67 200,-103 243,-132 383,-241 429,-334 46,-91 29,-252 -31,-310 -65,-62 -142,-76 -493,-88 -294,-10 -440,-24 -670,-65 -156,-27 -211,-31 -240,-15 -31,17 -61,77 -70,142 -5,36 -18,74 -30,91 -28,37 -20,70 25,112 51,49 180,93 525,183 42,11 48,9 -135,48 -299,63 -319,80 -313,264 2,90 6,113 23,135 22,30 132,100 180,115 54,17 173,4 266,-29 z m 2487,-317 c 63,-41 96,-200 58,-274 -10,-19 -71,-87 -136,-150 -132,-128 -129,-123 -155,-300 -19,-132 -58,-289 -91,-371 -64,-160 -294,-434 -420,-501 -235,-126 -407,-24 -453,270 -6,39 -11,93 -11,121 0,89 29,272 69,436 l 39,160 -48,51 c -68,72 -83,105 -88,201 -4,74 -2,88 22,135 14,29 35,64 47,78 l 20,25 -8,-85 c -13,-153 -4,-190 61,-248 45,-39 94,-49 170,-33 84,17 143,50 208,115 l 55,55 92,-47 c 90,-46 96,-47 179,-46 206,1 369,99 380,228 5,57 -24,140 -59,172 -10,9 -19,21 -19,27 0,13 58,1 88,-19 z"
       id="path5867"
       style="fill:#131516;fill-opacity:1" />
    <path
       d="m 4470,3608 c -73,-61 -244,-128 -326,-128 h -32 l -7,-76 c -4,-41 -5,-77 -3,-78 1,-1 39,-15 83,-30 178,-61 325,-148 470,-275 44,-39 83,-71 87,-71 13,0 67,125 87,205 28,110 41,203 41,313 v 92 l -68,-6 c -78,-7 -149,9 -241,56 l -56,28 z"
       id="path5869"
       style="fill:#131516;fill-opacity:1" />
    <path
       d="m 4067,3263 c -40,-80 -68,-248 -68,-398 1,-165 36,-266 114,-328 47,-39 129,-48 205,-23 121,41 292,199 361,334 l 22,44 -28,36 c -139,183 -335,307 -565,356 -23,5 -30,2 -41,-21 z"
       id="path5871"
       style="fill:#131516;fill-opacity:1" />
    <path
       d="m 202,5844 c -48,-11 -57,-44 -61,-238 -8,-420 96,-1059 241,-1486 38,-114 153,-360 167,-360 4,0 15,26 25,58 24,75 87,225 142,334 l 44,87 -60,108 c -33,59 -70,133 -81,163 -61,163 -109,384 -116,536 -5,96 -3,116 15,156 38,86 69,95 368,107 182,7 531,1 606,-11 17,-3 358,314 358,331 0,26 -674,141 -1115,191 -176,20 -488,34 -533,24 z"
       id="path5873"
       style="fill:#131516;fill-opacity:1" />
    <path
       d="m 730,5228 c -145,-13 -166,-38 -155,-183 14,-198 99,-504 177,-641 23,-41 44,-74 47,-74 4,0 32,49 65,108 124,227 322,504 505,707 l 72,80 -38,7 c -54,10 -559,7 -673,-4 z"
       id="path5875"
       style="fill:#131516;fill-opacity:1" />
    <path
       d="m 8380,4273 c 0,-34 5,-108 11,-163 9,-76 9,-132 0,-228 -16,-175 -41,-281 -101,-424 -95,-226 -173,-366 -256,-465 -24,-28 -44,-56 -44,-61 0,-14 37,-22 106,-22 46,0 68,5 86,20 90,70 320,695 358,969 20,148 -17,282 -105,377 l -54,59 z"
       id="path5877"
       style="fill:#131516;fill-opacity:1" />
    <path
       d="M 430,2685 C 236,2195 202,1988 287,1813 c 63,-131 379,-394 525,-438 41,-12 50,-11 131,15 90,29 300,126 376,174 l 44,28 -84,44 c -159,83 -306,229 -452,449 -131,199 -289,542 -321,700 l -12,60 z"
       id="path5879"
       style="fill:#131516;fill-opacity:1" />
  </g>
</svg>
