<svg xmlns="http://www.w3.org/2000/svg" xml:space="preserve" baseProfile="tiny-ps" version="1.2" viewBox="0 0 300 300">
  <defs>
    <linearGradient id="a" x1="88.992" x2="983.85" y1="79.928" y2="223.3" gradientUnits="userSpaceOnUse">
      <stop offset="0" stop-color="#f47681"/>
      <stop offset="1" stop-color="#f47681"/>
    </linearGradient>
    <linearGradient id="b" x1="196.72" x2="268.46" y1="92.516" y2="92.516" gradientUnits="userSpaceOnUse"/>
    <linearGradient id="c" x1="-74.717" x2="-12.552" y1="62.568" y2="62.568" gradientUnits="userSpaceOnUse"/>
    <radialGradient id="d" cx="133.09" cy="80.132" r="133.43" gradientUnits="userSpaceOnUse"/>
  </defs>
  <path fill="url(#a)" d="M0 0h300v300H0z"/>
  <path fill="url(#b)" stroke="#fff" stroke-width="3.2848" d="M189.31 96.648c0-1.1688 7.9159-8.3126 14.041-12.819 6.9254-5.0957 18.427-11.592 20.524-11.592 4.6234 0 15.738 30.581 18.578 51.116.7461 5.3954 1.2277 10.197 1.0701 10.669-7.9587-10.473-17.57-17.723-26.525-23.718-12.87-8.6154-24.384-13.656-27.689-13.656z"/>
  <path fill="none" stroke="#fff" stroke-width="2.242" d="M203.2 101.9c-.753-.6778 6.4954-8.4083 10.913-11.661 4.5976-3.3845 4.9629-3.5119 6.3846-2.2252 2.8008 2.5347 9.5188 25.63 10.061 31.811-2.6915-.3016-19.842-13.913-27.359-17.925z"/>
  <g stroke="#fff">
    <path fill="url(#c)" stroke-width="3.2848" d="M53.186 162.26c-6.2533-10.26-9.8962-33.593-9.8962-44.544 0-8.4002.5845-9.2454 6.3932-9.2442 10.04.002 37.884 4.4969 41.399 6.4149-13.863 13.661-26.129 30.022-34.962 52.187z"/>
    <path fill="url(#c)" stroke-width="2.242" d="M59.261 146.18c-1.7273-4.085-4.2725-16.41-4.2725-20.376 0-2.1714.4592-3.2439 1.6653-3.8894 2.0234-1.0829 23.448 2.262 24.479 3.2978-4.6233 6.0795-12.783 17.928-19.622 26.286z"/>
    <g fill="url(#d)" stroke-width="3.2848">
      <path d="M248.61 144.77c-1.4374.0278.876 6.0262.876 11.595 0 3.1094-.5787 7.1896-1.307 9.6428-1.4753 4.9695-7.5124 15.232-8.8086 16.033-.4618.2854-.911-.0623-.911.8145 0 2.1999 5.9376 4.3665 8.7761 1.3037 2.49-2.6867 7.154-15.12 8.8898-22.988 1.1443-5.187-.009-8.285-.8083-10.214-.8264-1.995-5.2291-6.2155-6.7071-6.187z"/>
      <path d="M76.198 214.01c-9.1912-6.3849-15.765-17.305-19.405-31.384-2.5835-9.9938-1.5165-17.376 4.2214-29.207.9844-2.0298 1.9698-3.957 2.9708-5.8006 4.0737-7.5023 8.4053-13.616 13.974-19.598 3.1883-3.4244 6.7821-6.8053 10.965-10.378 24.315-20.768 53.545-29.538 82.69-24.811 5.4079.8771 11.321 2.2865 17.262 4.1078 11.241 3.4457 22.584 8.3655 30.807 13.944 7.148 4.8494 16.472 13.708 21.834 20.411 5.9018 7.3766 7.6013 12.323 7.6013 22.124 0 9.0402-1.5341 15.588-5.2402 22.366-3.6842 6.7378-6.6469 8.6219-13.564 8.6255-7.1313.003-22.175 1.3518-32.932 2.9512-17.26 2.5662-49.299 10.168-64.054 15.197-32.7 11.146-36.124 12.095-45.682 12.662-7.7035.4569-9.21-.0567-11.45-1.2091z"/>
      <path d="M55.672 177.86c-.3456 0-4.1236 8.4171-6.0926 13.724-5.9401 16.01-4.9943 20.478 6.0532 28.611 3.1595 2.3259 5.7747 3.6216 7.3107 3.6216 2.413 0 5.4325-1.5294 9.1487-3.3987 6.0056-3.021 7.7967-4.9645 6.1704-5.2239-10.283-1.6402-18.716-17.309-22.02-27.584-1.0037-3.1215-.2245-9.7496-.5701-9.7496z"/>
    </g>
  </g>
  <path fill="#fff" d="M154.06 161.86c-2.7117 2.6547-8.063 5.0214-11.603 4.6788l-1.1567 4.4787-.0121.044c-.0588.197-5.0323 17.253 2.2474 22.043 6.2205 3.7495 14.622-5.2658 17.925-11.859 2.8632-5.8242 3.8162-11.974 3.2464-17.252 0 0-1.9734.7296-4.2766.3842-1.6737-.251-4.2079-1.1329-6.3699-2.5175z"/>
  <path fill="#f47681" d="M145.17 190.39c-5.5366-3.6437-1.6747-16.718-1.6873-16.673 5.5491 1.1631 11.179 4.3642 14.446 8.4914-1.8076 3.4329-8.0633 11.012-12.759 8.1814z"/>
  <path fill="none" stroke="#fff" stroke-linecap="round" stroke-linejoin="round" stroke-width="3.415" d="M141.12 159.21s-3.0364 4.1829.9954 6.7952c2.1343 1.3829 7.086.6734 11.619-3.6656 3.8688 2.8137 7.5895 3.4198 11.056 1.2574 5.3165-3.3164 1.7087-7.582 1.7087-7.582"/>
  <path fill="#f47681" d="m143.98 171.47.8926-3.4531c2.7032.2615 6.7895-1.546 8.86-3.5732 1.651 1.0573 3.5863 1.7318 4.8643 1.9235 1.7587.2637 3.265-.2935 3.265-.2935.435 4.0304-.2918 8.7269-2.8277 14.137-4.2844-4.5554-8.1864-6.9282-15.054-8.7407z"/>
  <g fill="#fff">
    <path d="M104.81 169.95c3.2487-.8013 7.1722-1.9649 14.444-2.1154 10.938-.0411 13.493.1823 12.99-6.7741 0 0-.5932-6.5121-4.0774-3.4137-7.7007-.3868-15.059-.6703-22.308 1.0737-7.5787 1.8232-11.551 3.3694-12.313 4.7933-.9547 1.8748.4912 4.6548.4912 4.6548s1.7219 3.5783 3.158 3.5514c2.8189-.3889 5.3441-1.2099 7.615-1.7701z"/>
    <path d="M103.48 156.03c3.3373 1.1224 7.7397 1.8975 13.318 4.9189 10.088 5.6082 12.141 7.0152 15.104.7013 0 0 .7208-3.6345-2.1933-5.9914-3.2648-2.7774-8.6109-7.1766-18.148-9.7682-7.8083-1.8097-13.253-1.8933-14.614-1.0239-1.7495 1.1685-1.8411 4.2164-1.8411 4.2164s-.2544 4.0474 1.0114 4.7262c2.649 1.0392 5.1521 1.4565 7.3628 2.2206zm90.95-2.55c-.205-2.3806-.8784-8.2482-1.2128-13.071-.778-11.221-1.8525-15.407-4.549-17.725-4.1896-3.6009-9.7353-1.484-11.919 4.0805-2.5328 6.4526.4984 37.015 10.312 36.119 7.2186-.659 7.9156-3.0574 7.3691-9.4038z"/>
  </g>
</svg>
