<?xml version="1.0" encoding="UTF-8" standalone="no"?>
<svg
   version="1.0"
   width="840.47278pt"
   height="592.95654pt"
   viewBox="0 0 840.47278 592.95654"
   preserveAspectRatio="xMidYMid"
   id="svg5883"
   sodipodi:docname="flirtual-mark-black.svg"
   inkscape:export-filename="flirtual-mark-black.png"
   inkscape:export-xdpi="85.666069"
   inkscape:export-ydpi="85.666069"
   inkscape:version="1.2 (dc2aeda, 2022-05-15)"
   xmlns:inkscape="http://www.inkscape.org/namespaces/inkscape"
   xmlns:sodipodi="http://sodipodi.sourceforge.net/DTD/sodipodi-0.dtd"
   xmlns="http://www.w3.org/2000/svg"
   xmlns:svg="http://www.w3.org/2000/svg">
  <defs
     id="defs5887" />
  <sodipodi:namedview
     id="namedview5885"
     pagecolor="#ffffff"
     bordercolor="#000000"
     borderopacity="0.25"
     inkscape:showpageshadow="2"
     inkscape:pageopacity="0.0"
     inkscape:pagecheckerboard="0"
     inkscape:deskcolor="#d1d1d1"
     inkscape:document-units="pt"
     showgrid="false"
     inkscape:zoom="0.65322581"
     inkscape:cx="548.04938"
     inkscape:cy="409.50617"
     inkscape:window-width="1597"
     inkscape:window-height="1073"
     inkscape:window-x="784"
     inkscape:window-y="112"
     inkscape:window-maximized="0"
     inkscape:current-layer="svg5883" />
  <metadata
     id="metadata5861">
Created by potrace 1.14, written by Peter Selinger 2001-2017
</metadata>
  <g
     id="g791"
     transform="translate(-177.30011,134.46296)">
    <path
       d="m 885.17152,-131.06296 c -19.6,8.6 -57.1,31.8 -77.2,47.7 -15.3,12.2 -43.6,37.7 -42.6,38.4 0.2,0.1 5.3,1.9 11.3,4 6.1,2.1 16,5.8 22,8.2 l 11,4.3 2,-2.7 c 10.5,-14.6 31.9,-34.6 49.8,-46.7 7.9,-5.4 10.5,-6.6 13.7,-6.6 7.9,0 13.6,8.3 22.8,33.1 8.9,23.9 23.5,75.3 25.7,90.4 0.7,4.7 1.4,5.6 10.9,14.6 5.6,5.3 14.6,14.7 20.1,20.8 5.9,6.6 10.1,10.6 10.3,9.8 0.5,-2.2 -3.5,-30.1 -6.4,-44.5 -13.4,-67.9 -43.7,-152.8 -61.2,-171.5 -1.4,-1.5 -3.1,-2.7 -3.6,-2.7 -0.6,0 -4.5,1.5 -8.6,3.4 z"
       id="path110"
       style="stroke-width:0.1" />
    <path
       d="m 866.07152,-71.36296 c -4.1,2.8 -10.4,7.6 -14.1,10.5 -8.2,6.8 -33.8,33 -33.8,34.7 0.1,0.6 8.9,5.5 19.8,10.8 28.4,13.9 43.6,23.5 66,41.6 5.6,4.6 10.2,7.9 10.2,7.3 0,-4.5 -10.3,-41.9 -17.7,-64.5 -10.1,-30.9 -17.1,-45.5 -21.6,-45.5 -0.7,0 -4.7,2.3 -8.8,5.1 z"
       id="path112"
       style="stroke-width:0.1" />
    <path
       d="m 600.67152,-55.21481 c -75.7,4.3 -151.3,32.9 -218,82.4 -25.9,19.2 -60.9,51.5 -79.7,73.7 -17.8,20.9 -34.1,45.6 -48.7,73.8 -27.6,53.1 -33.7,83.7 -24.5,122 12.2,51.3 36.1,94.3 66.1,119.1 10.5,8.6 14.9,10.7 24.7,11.8 8,0.9 36.2,-0.2 48.6,-1.9 21.6,-3 50.1,-11.3 121.5,-35.5 75.1,-25.4 109,-34.9 190.1,-53.4 86.7,-19.8 160.9,-30.2 232.4,-32.7 9.6,-0.3 20,-1 23,-1.6 14.9,-2.8 24.1,-12.1 36.4,-36.7 12.7,-25.3 17.2,-49 16.3,-85.9 -0.8,-31.1 -4.5,-44.6 -18,-64.7 -15.4,-23.1 -53.1,-61.6 -82.7,-84.6 -45.5,-35.4 -121.6,-66.3 -199,-80.8 -11.6,-2.2 -29.2,-4.2 -45.5,-5.1 -18.7,-1.1 -23.7,-1.1 -43,0.1 z m 142.2,112.4 c 5.9,1.8 13.3,7.9 16.7,13.8 5.7,9.9 8.5,25 11.6,62.7 1.1,13.5 2.7,30.9 3.5,38.7 4.1,38.9 1.1,46.1 -20.9,49.9 -8.7,1.5 -12,1.2 -17.7,-1.7 -12,-6 -23.3,-31.8 -29.4,-66.9 -2.2,-12.6 -2.8,-19.6 -3.2,-38 -0.3,-14.4 -0.1,-24.7 0.6,-28.5 3.2,-17.2 16.7,-31.1 30.7,-31.4 1.7,-0.1 5.3,0.6 8.1,1.4 z m -312.7,96.1 c 24.9,4.6 47,13.4 66.5,26.6 15,10.1 23.6,17.7 26.4,23.2 5.1,10.3 5.3,26.9 0.3,32.7 -4.5,5.4 -7.5,6 -32.7,7 -41.9,1.5 -46.5,2.1 -77.1,9.9 -26.4,6.7 -27.3,6.8 -31.2,3.5 -3.8,-3.2 -9.8,-14.9 -10.7,-20.8 -1.1,-7.5 1.1,-10.9 9.7,-15.1 8.6,-4.2 25.7,-9.4 43.2,-13.3 6.9,-1.5 12.3,-3 11.8,-3.4 -0.7,-0.7 -17.3,-5.8 -40.7,-12.5 -6.8,-2 -12.9,-4.3 -14,-5.5 -1.6,-1.6 -2.1,-3.6 -2.4,-11 -0.5,-14.3 2.7,-22.1 9.9,-23.9 5.7,-1.5 25.6,-0.2 41,2.6 z m 239.4,39.5 c 5.9,7 7.5,17.8 3.8,26.1 -2,4.5 -9.4,12 -13.7,14 -2.4,1.1 -2.5,1.5 -2.5,9.7 0,32.3 -14.2,64.7 -38.6,88.1 -12,11.4 -21.3,16.3 -31.8,16.8 -6.2,0.3 -7.8,0 -12.5,-2.5 -6.7,-3.5 -11.2,-9.7 -14.4,-19.7 -1.9,-6.2 -2.2,-9.2 -2.1,-23.6 0,-17.6 1,-24.7 6.4,-46 2.7,-10.6 2.8,-11.6 1.3,-12.5 -4.6,-2.8 -10.4,-9.1 -11.9,-13.1 -2.3,-6.1 -1.5,-14.7 2.2,-21.4 3,-5.5 5.9,-7 9.9,-5.2 3.6,1.7 4.2,5.6 1.6,10.7 -4.1,8.2 -1.8,15.3 5.8,17.6 7.6,2.3 21.7,-2.8 31.9,-11.6 6.1,-5.1 9.6,-5.7 14.2,-2.5 10.6,7.5 23.3,9.5 32,5.1 5.4,-2.8 8.7,-5.7 10.6,-9.3 2,-3.8 1.8,-5.8 -1.1,-11.2 -3,-5.7 -3.1,-8 -0.5,-10.6 2.9,-2.9 6.4,-2.5 9.4,1.1 z"
       id="path114"
       style="stroke-width:0.1" />
    <path
       d="m 610.77152,230.43704 c -4.4,4.8 -22.2,12.1 -29.7,12.1 h -3.7 l -1.6,6.5 c -0.9,3.5 -1.6,6.9 -1.6,7.4 0,0.6 3.2,2 7.1,3.1 17.8,5.3 32.9,13.9 46.6,26.4 l 7.1,6.6 3.2,-7.7 c 6.1,-14.6 10.3,-37.5 8.6,-46.6 l -0.6,-3.4 -4.7,0.9 c -5.9,1.3 -13.3,-0.1 -21.8,-4.2 -3.4,-1.6 -6.5,-3 -6.7,-3 -0.3,0 -1.3,0.9 -2.2,1.9 z"
       id="path116"
       style="stroke-width:0.1" />
    <path
       d="m 571.77152,266.43704 c -1.2,1.8 -3.7,16 -4.6,25.6 -3.3,33.8 11.1,51.3 33,40.4 4,-2 9,-5.9 13.9,-10.8 7.7,-7.6 16.1,-18.8 16.1,-21.4 0,-0.7 -3,-4.3 -6.7,-7.9 -11.6,-11 -24,-18.4 -40.2,-23.8 -9.7,-3.3 -10.7,-3.4 -11.5,-2.1 z"
       id="path118"
       style="stroke-width:0.1" />
    <path
       d="m 186.67152,11.03704 c -0.5,0.2 -2.2,0.6 -3.6,0.9 -4.4,0.9 -5.2,4.5 -5.7,23.1 -1.4,58.9 18,149.9 39.2,183.4 l 2.8,4.4 4.4,-11.8 c 2.4,-6.5 6.8,-17 9.9,-23.2 l 5.4,-11.4 -4.8,-11.7 c -5.9,-14 -9,-24.2 -13,-42.2 -7.4,-33.1 -9.2,-53.1 -5.6,-60.5 3.2,-6.3 7.3,-8.5 16.4,-8.5 14.6,0 51.2,4.7 74.1,9.6 l 11.4,2.4 4.1,-3.7 c 9,-8.4 28.5,-27.8 28.5,-28.5 0,-2.6 -61.6,-13.7 -104,-18.7 -27.6,-3.3 -55.3,-5 -59.5,-3.6 z"
       id="path120"
       style="stroke-width:0.1" />
    <path
       d="m 225.57152,62.33704 c -6,3.9 -3.6,30 6.1,68.7 3.9,15.5 10.7,34.5 12.4,34.5 0.3,-0.1 3.3,-5.1 6.6,-11.2 12.6,-23.3 33.8,-53.1 51.8,-72.6 4.2,-4.6 7.7,-8.7 7.7,-9.2 0,-0.4 -1.5,-1 -3.2,-1.3 -43.7,-7.7 -77.7,-11.4 -81.4,-8.9 z"
       id="path122"
       style="stroke-width:0.1" />
    <path
       d="m 1001.5715,172.23704 c 0.3,5.4 0.9,14.4 1.2,19.9 1.2,18.4 -2.7,40.4 -10.09998,57.9 -9.8,23.3 -17.9,37.5 -29.1,51.2 l -2.7,3.3 3.6,1.5 c 4.4,1.8 12.3,1.9 15.7,0.2 7.9,-3.9 25.49998,-45.1 35.49998,-83.2 4.8,-17.9 4.5,-34.1 -0.8,-45.3 -2.1,-4.6 -11.2,-15.2 -12.9,-15.2 -0.7,0 -0.9,3.3 -0.4,9.7 z"
       id="path124"
       style="stroke-width:0.1" />
    <path
       d="m 206.37152,328.23704 c -19.5,48.9 -22.8,69.4 -14.1,87.3 7.8,16 45.1,45 57.8,45 2.2,0 6.2,-0.7 8.8,-1.6 10.6,-3.5 42.3,-19.8 42.3,-21.7 0,-0.4 -2.5,-1.9 -5.6,-3.3 -20,-8.8 -40.5,-30.9 -57.7,-62.1 -10.9,-19.8 -22.7,-49.6 -22.7,-57.6 0,-2 -0.4,-3.7 -0.9,-3.7 -0.5,0 -4,8 -7.9,17.7 z"
       id="path126"
       style="stroke-width:0.1" />
  </g>
</svg>
