<svg xmlns="http://www.w3.org/2000/svg" xmlns:xlink="http://www.w3.org/1999/xlink" xml:space="preserve" width="216.585" height="154.865"><defs><linearGradient id="a"><stop offset="0" style="stop-color:#fc9caa;stop-opacity:1"/><stop offset="1" style="stop-color:#fb7d9b;stop-opacity:1"/></linearGradient><linearGradient xlink:href="#a" id="e" x1="-74.717" x2="-12.552" y1="62.568" y2="62.568" gradientUnits="userSpaceOnUse"/><linearGradient xlink:href="#a" id="b" x1="196.722" x2="268.456" y1="92.516" y2="92.516" gradientUnits="userSpaceOnUse"/><linearGradient xlink:href="#a" id="c" x1="196.722" x2="268.456" y1="92.516" y2="92.516" gradientUnits="userSpaceOnUse"/><linearGradient xlink:href="#a" id="d" x1="196.722" x2="268.456" y1="92.516" y2="92.516" gradientUnits="userSpaceOnUse"/><linearGradient xlink:href="#a" id="f" x1="-74.717" x2="-12.552" y1="62.568" y2="62.568" gradientUnits="userSpaceOnUse"/><linearGradient xlink:href="#a" id="g" x1="-74.717" x2="-12.552" y1="62.568" y2="62.568" gradientUnits="userSpaceOnUse"/><radialGradient xlink:href="#a" id="j" cx="133.094" cy="80.132" r="133.429" fx="133.094" fy="80.132" gradientTransform="matrix(-.41213 .80789 -1.02359 -.52217 250.623 47.22)" gradientUnits="userSpaceOnUse"/><radialGradient xlink:href="#a" id="h" cx="133.094" cy="80.132" r="133.429" fx="133.094" fy="80.132" gradientTransform="matrix(-.41213 .80789 -1.02359 -.52217 247.505 48.97)" gradientUnits="userSpaceOnUse"/><radialGradient xlink:href="#a" id="i" cx="133.094" cy="80.132" r="133.429" fx="133.094" fy="80.132" gradientTransform="matrix(-.41213 .80789 -1.02359 -.52217 250.623 47.219)" gradientUnits="userSpaceOnUse"/></defs><g style="fill:url(#b);fill-opacity:1" transform="matrix(.8212 0 0 .8212 -16.896 -42.62)"><path d="M198.722 85.4c0-1.424 11.302-11.897 18.761-17.385 8.433-6.206 22.44-14.116 24.993-14.116 5.63 0 19.164 37.24 22.622 62.245.909 6.57 1.495 12.416 1.303 12.992-15.778-18.534-32.196-36.694-67.68-43.737Z" style="fill:url(#c);fill-opacity:1;stroke:#fff;stroke-width:4;stroke-miterlimit:4;stroke-dasharray:none"/><path d="M218.026 89.368c-.917-.825 7.184-9.586 12.564-13.546 5.598-4.122 6.043-4.277 7.774-2.71 3.411 3.087 11.152 27.765 11.152 35.292-3.278-.368-22.337-14.15-31.49-19.036z" style="fill:url(#d);fill-opacity:1;stroke:#fff;stroke-width:2;stroke-miterlimit:4;stroke-dasharray:none"/></g><g style="fill:url(#e);fill-opacity:1" transform="matrix(.8212 0 0 .8212 61.358 16.737)"><path d="M-60.666 91.24C-68.281 78.748-72.717 50.335-72.717 37c0-10.23.712-11.259 7.785-11.257 12.225.003 46.133 5.476 50.412 7.811-16.88 16.636-31.817 36.559-42.574 63.55z" style="fill:url(#f);fill-opacity:1;stroke:#fff;stroke-width:4;stroke-miterlimit:4;stroke-dasharray:none"/><path d="M-53.269 71.666c-2.713-4.67-5.202-15.805-5.202-20.634 0-2.645.559-3.95 2.027-4.737 2.464-1.318 26.376-1.422 27.631-.16-5.63 7.402-13.389 20.068-21.717 30.246z" style="fill:url(#g);fill-opacity:1;stroke:#fff;stroke-width:2;stroke-miterlimit:4;stroke-dasharray:none"/></g><path d="M253.384 150.256c-1.75.034 1.067 7.339 1.067 14.12 0 3.787-.705 8.755-1.592 11.743-1.796 6.051-9.148 18.548-10.726 19.523-.562.348-1.11-.075-1.11.992 0 2.68 7.975 4.515 10.687 1.588 3.033-3.272 8.712-18.412 10.826-27.993 1.393-6.317-.011-10.089-.985-12.439-1.006-2.429-6.367-7.568-8.167-7.534z" style="fill:url(#h);fill-opacity:1;stroke:#fff;stroke-width:4;stroke-miterlimit:4;stroke-dasharray:none;stroke-opacity:1" transform="matrix(.8212 0 0 .8212 -1.117 -49.214)"/><path d="M44.004 234.952c-11.193-7.775-19.768-21.453-24.2-38.598-3.146-12.17-1.847-21.159 5.14-35.566a172.896 172.896 0 0 1 3.618-7.063c4.96-9.136 10.235-16.582 17.016-23.865 3.883-4.17 8.26-8.287 13.353-12.638 29.61-25.29 65.203-35.969 100.694-30.213 19.045 3.09 46.955 13.31 59.026 21.614 6.644 4.571 19.566 17.061 26.096 25.223 7.187 8.983 9.257 15.006 9.257 26.94 0 11.01-1.868 18.982-6.381 27.236-4.487 8.205-8.094 10.499-16.517 10.503-8.684.004-27.004 1.647-40.102 3.594-21.018 3.125-60.033 12.381-78 18.506-39.82 13.573-43.989 14.729-55.628 15.419-9.38.556-11.215.406-13.372-1.092z" style="fill:url(#i);fill-opacity:1;stroke:#fff;stroke-width:4;stroke-miterlimit:4;stroke-dasharray:none;stroke-opacity:1" transform="matrix(.8212 0 0 .8212 -1.117 -49.214)"/><path d="M18.439 190.55c-.421 0-5.022 10.25-7.42 16.712-7.233 19.497-6.081 24.937 7.372 34.84 3.847 2.832 7.032 4.41 8.902 4.41 1.602 0 6.615-1.862 11.14-4.138 7.314-3.68 9.495-6.046 7.515-6.362-12.522-1.997-22.792-21.077-26.815-33.59-1.222-3.8-.273-11.872-.694-11.872z" style="fill:url(#j);fill-opacity:1;stroke:#fff;stroke-width:4;stroke-miterlimit:4;stroke-dasharray:none;stroke-opacity:1" transform="matrix(.8212 0 0 .8212 -1.117 -49.214)"/><path d="M98.35 182.53c4.125-.552 12.384-1.276 18.353-1.61 8.794-.49 11.214-.965 12.75-2.501 2.656-2.656 2.383-7.166-.651-10.772-3.05-3.625-25.118-14.815-30.955-15.697-5.4-.816-9.497 2.213-9.497 7.022 0 4.083 1.234 5.152 7.54 6.535 7.406 1.625 8.545 2.069 7.916 3.087-.316.51-1.816.928-3.334.928-1.517 0-5.07.686-7.894 1.525-5.899 1.752-8.933 4.17-7.292 5.81.585.586 1.064 2.025 1.064 3.198 0 3.888.574 4.006 12 2.476zM145.805 208.067c-2.091-2.09-2.453-3.388-2.44-8.75.018-7.79 1.564-11.107 5.512-11.828 2.828-.517 2.859-.575.636-1.185-3.504-.96-2.374-3.617 3.21-7.544l4.871-3.426 5.128 1.421c5.112 1.417 5.129 1.436 5.405 5.844.153 2.433-.323 6.448-1.058 8.923-1.122 3.78-1.733 4.496-3.82 4.477-2.166-.02-2.432.342-2.07 2.816.495 3.369-3.467 8.156-8.547 10.33-4.135 1.77-3.951 1.799-6.827-1.078z" style="fill:#faa7b7" transform="matrix(.8212 0 0 .8212 -17.004 -49.214)"/><path d="M154.15 210.102c4.365-2.295 10.724-9.694 12.965-15.086 1.144-2.753 2.392-7.764 2.774-11.135.642-5.675 1.019-6.402 5.077-9.794 4.31-3.603 5.261-6.116 3.777-9.983-.65-1.694-1.647-3.194-4.344-3.282 1.86 1.977 2.388 3.62 2.606 4.962.803 4.95-5.423 8.516-12.653 8.39-3.105-.053-7.201-3.007-7.201-3.007s-2.807 3.219-4.77 4.13c-3.932 1.824-6.7 1.744-8.572.19-.883-.732-2.446-2.516-2.124-5.298l.598-5.167-1.775 2.889c-1.502 2.442-1.48 6.48.858 9.562l2.473 2.512-1.904 7.846c-4.137 17.043 1.661 27.82 12.215 22.271z" style="fill:#fff" transform="matrix(.8212 0 0 .8212 -17.004 -49.214)"/><path d="m145.167 184.887.514-4.749c3.635.352 9.13-2.079 11.913-4.804 2.22 1.421 4.822 2.328 6.54 2.586 2.366.355 4.39-.395 4.39-.395.918 5.088-.953 15.788-3.865 18.956-4.812-4.702-9.942-8.788-19.492-11.594z" style="fill:#db647e;fill-opacity:1" transform="matrix(.8212 0 0 .8212 -17.004 -49.214)"/><path d="M146.082 209.221c-7.542-4.964-2.26-23.393-1.323-23.207 7.981 1.163 14.66 6.017 18.743 12.062-1.461 4.465-11.023 15.001-17.42 11.145z" style="fill:#ed5073;fill-opacity:1" transform="matrix(.8212 0 0 .8212 -17.004 -49.214)"/><path d="M212.801 172.98c3.09-2.864 3.094-.242-.054-31.292-1.873-18.46-3.01-23.553-6.075-27.195-2.699-3.207-7.526-4.003-11.473-1.89-5.587 2.99-7.555 18.448-4.228 33.222 2.14 9.5 7.944 23.935 10.913 27.14 3.1 3.343 7.319 3.35 10.917.015z" style="fill:#faa7b7" transform="matrix(.70167 0 0 .632 3.866 -17.797)"/><path d="M211.612 174.422c4.248-3.341 4.765-5.119 3.676-12.635-.54-3.733-1.484-13.02-2.097-20.64-1.425-17.726-3.074-24.315-6.982-27.897-6.071-5.565-14.359-2.21-16.869 6.829-4.68 16.856 7.708 56.421 17.666 56.421 1.08 0 3.153-.935 4.606-2.078z" style="fill:#fff" transform="matrix(.70167 0 0 .632 3.866 -17.797)"/><path d="M97.74 183.015c4.4-.795 12.41-1.46 17.8-1.48 14.055-.05 16.443-1.564 15.83-10.035-.272-3.773-6.178-8.377-18.558-14.469-13.793-6.786-17.263-7.503-22.035-4.554-3.178 1.965-3.536 2.63-3.536 6.57 0 5.096.682 5.634 9.5 7.495l6 1.267-3.5.842c-9.23 2.22-14.066 4.103-14.994 5.836-.675 1.263-.678 2.098-.009 2.511.552.341 1.003 1.628 1.003 2.861 0 2.375 1.701 4.654 3.45 4.621.577-.01 4.65-.67 9.05-1.465z" style="fill:#fff" transform="matrix(.8212 0 0 .8212 -17.004 -49.214)"/></svg>