<svg xmlns="http://www.w3.org/2000/svg" xmlns:xlink="http://www.w3.org/1999/xlink" xml:space="preserve" viewBox="0 0 216.5854 154.8654">
  <defs>
    <linearGradient id="a">
      <stop offset="0" stop-color="#fc9caa"/>
      <stop offset="1" stop-color="#fb7d9b"/>
    </linearGradient>
    <linearGradient xlink:href="#a" id="b" x1="196.7217" x2="268.4562" y1="92.5157" y2="92.5157" gradientTransform="translate(-19.2149 8.0305)" gradientUnits="userSpaceOnUse"/>
    <linearGradient xlink:href="#a" id="d" x1="-74.7175" x2="-12.552" y1="62.5683" y2="62.5683" gradientTransform="translate(76.0771 80.3102)" gradientUnits="userSpaceOnUse"/>
    <linearGradient xlink:href="#a" id="c" x1="-74.7175" x2="-12.552" y1="62.5683" y2="62.5683" gradientTransform="translate(76.0771 80.3102)" gradientUnits="userSpaceOnUse"/>
    <radialGradient xlink:href="#a" id="e" cx="133.0941" cy="80.1321" r="133.4293" fx="133.0941" fy="80.1321" gradientTransform="matrix(-.4121 .8079 -1.0236 -.5222 247.5047 48.9698)" gradientUnits="userSpaceOnUse"/>
    <radialGradient xlink:href="#a" id="f" cx="133.0941" cy="80.1321" r="133.4293" fx="133.0941" fy="80.1321" gradientTransform="matrix(-.4121 .8079 -1.0236 -.5222 250.6226 47.2186)" gradientUnits="userSpaceOnUse"/>
    <radialGradient xlink:href="#a" id="g" cx="133.0941" cy="80.1321" r="133.4293" fx="133.0941" fy="80.1321" gradientTransform="matrix(-.4121 .8079 -1.0236 -.5222 250.6226 47.219)" gradientUnits="userSpaceOnUse"/>
  </defs>
  <path fill="url(#b)" stroke="#fff" stroke-width="4" d="M179.5068 93.4297c0-1.4233 11.3026-11.8966 18.7613-17.3847 8.4332-6.2051 22.4395-14.1157 24.993-14.1157 5.63 0 19.1644 37.2395 22.6224 62.2448.9086 6.57 1.495 12.4165 1.303 12.9922-15.778-18.5335-32.1967-36.6936-67.6797-43.7366z" transform="matrix(.8212 0 0 .8213 -1.1114 -49.223)"/>
  <path fill="none" stroke="#fff" stroke-width="2.7301" d="M198.0855 98.0516c-.9169-.8254 7.9096-10.239 13.2894-14.1993 5.5985-4.1214 6.0434-4.2765 7.7747-2.7096 3.4106 3.0865 11.5913 31.2099 12.251 38.737-3.2774-.3672-24.1617-16.9417-33.315-21.8281z" transform="matrix(.8212 0 0 .8213 -1.1114 -49.223)"/>
  <path fill="url(#c)" stroke="#fff" stroke-width="4" d="M15.4107 171.5507C7.796 159.0572 3.36 130.644 3.36 117.3087c0-10.229.7118-11.2583 7.7852-11.2568 12.2254.003 46.1327 5.476 50.4125 7.8115-16.8808 16.6358-31.8176 36.5583-42.5741 63.5491z" transform="matrix(.8212 0 0 .8213 -1.1114 -49.223)"/>
  <path fill="url(#d)" stroke="#fff" stroke-width="2.7301" d="M22.8084 151.9765c-2.1033-4.9744-5.2027-19.9823-5.2027-24.8118 0-2.6442.5592-3.9502 2.0278-4.7362 2.464-1.3187 28.5526 2.7544 29.808 4.0159-5.6298 7.4032-15.566 21.8316-23.8942 32.0095z" transform="matrix(.8212 0 0 .8213 -1.1114 -49.223)"/>
  <path fill="url(#e)" stroke="#fff" stroke-width="4" d="M253.384 150.2564c-1.7503.034 1.0668 7.3383 1.0668 14.1199 0 3.7863-.7047 8.755-1.5915 11.7423-1.7965 6.0514-9.148 18.5484-10.7264 19.5239-.5623.3475-1.1093-.0758-1.1093.9917 0 2.679 7.2303 5.3173 10.6868 1.5876 3.0321-3.2717 8.7116-18.4116 10.8254-27.9932 1.3934-6.3162-.0111-10.0886-.9844-12.4383-1.0062-2.4293-6.3676-7.5687-8.1673-7.5339z" transform="matrix(.8212 0 0 .8213 -1.1114 -49.223)"/>
  <path fill="url(#f)" stroke="#fff" stroke-width="4" d="M43.433 234.5715c-11.1922-7.7751-19.1973-21.0723-23.6294-38.2171-3.146-12.1697-1.8467-21.1593 5.1405-35.5664 1.1987-2.4717 2.3987-4.8186 3.6176-7.0634 4.9607-9.1358 10.2354-16.5811 17.0167-23.8646 3.8825-4.17 8.2588-8.287 13.3527-12.6377 29.6092-25.2897 65.2025-35.9693 100.694-30.213 19.0444 3.0889 43.229 11.5984 58.5346 21.9821 8.7042 5.9052 20.0578 16.693 26.5877 24.8547 7.1868 8.9827 9.2563 15.006 9.2563 26.9407 0 11.0085-1.868 18.9816-6.381 27.2351-4.4864 8.2048-8.0942 10.499-16.5169 10.5034-8.6839.004-27.0034 1.6462-40.102 3.5938-21.0181 3.125-60.0331 12.3814-78 18.5057-39.8202 13.5733-43.9887 14.7287-55.6279 15.419-9.3807.5564-11.2152-.069-13.9429-1.4723z" transform="matrix(.8212 0 0 .8213 -1.1114 -49.223)"/>
  <path fill="url(#g)" stroke="#fff" stroke-width="4" d="M18.4387 190.5501c-.4208 0-5.0213 10.2497-7.419 16.7122-7.2334 19.4963-6.0817 24.9365 7.371 34.8398 3.8475 2.8323 7.032 4.4102 8.9024 4.4102 2.9384 0 6.6153-1.8624 11.1406-4.1387 7.3132-3.6787 9.4942-6.0454 7.5139-6.3613-12.5214-1.9973-22.7914-21.0775-26.8146-33.5899-1.2223-3.801-.2734-11.8723-.6943-11.8723z" transform="matrix(.8212 0 0 .8213 -1.1114 -49.223)"/>
  <path fill="#fff" d="M112.4093 91.2688c-2.7116 2.6549-8.0626 5.0217-11.6025 4.6792l-1.1567 4.479-.012.044c-.0588.197-5.0321 17.2538 2.2472 22.045 6.2202 3.7498 14.621-5.2662 17.9237-11.8602 2.863-5.8245 3.816-11.975 3.2463-17.2536 0 0-1.9734.7297-4.2764.3843-1.6736-.251-4.2077-1.133-6.3696-2.5177z"/>
  <path fill="#ed5073" d="M103.5245 119.8006c-5.5363-3.644-1.6746-16.7194-1.6872-16.674 5.5489 1.1632 11.178 4.3645 14.4455 8.492-1.8075 3.4332-8.063 11.0126-12.7583 8.182z"/>
  <path fill="none" stroke="#fff" stroke-linecap="round" stroke-linejoin="round" stroke-width="4.1585" d="M122.4914 167.8325s-3.6975 5.0936 1.212 8.2746c2.5991 1.684 8.629.8201 14.1485-4.4636 4.7111 3.4264 9.2419 4.1643 13.463 1.5312 6.474-4.0384 2.0807-9.2327 2.0807-9.2327" transform="matrix(.8212 0 0 .8213 -1.1114 -49.223)"/>
  <path fill="#db647e" d="m102.329 100.8735.8925-3.4534c2.703.2616 6.7891-1.5461 8.8597-3.5734 1.6508 1.0574 3.586 1.732 4.864 1.9237 1.7586.2637 3.2648-.2936 3.2648-.2936.435 4.0307-.2917 8.7275-2.8275 14.138-4.2842-4.5557-8.186-6.9287-15.0536-8.7413z"/>
  <g fill="#fff">
    <path d="M63.1667 99.3617c3.2485-.8014 7.1718-1.965 14.4435-2.1155 10.9378-.041 13.492.1824 12.9892-6.7745 0 0-.5932-6.5125-4.0772-3.414-7.7004-.3868-15.0582-.6703-22.3071 1.0738-7.5784 1.8233-11.55 3.3697-12.312 4.7937-.9546 1.8749.4912 4.655.4912 4.655s1.7218 3.5786 3.1578 3.5517c2.8188-.3889 5.3438-1.21 7.6146-1.7702z"/>
    <path d="M61.8304 85.44c3.3371 1.1225 7.7393 1.8976 13.3178 4.9193 10.0874 5.6085 12.1404 7.0156 15.1032.7013 0 0 .7208-3.6347-2.1931-5.9917-3.2647-2.7776-8.6105-7.1771-18.1477-9.7689-7.8079-1.8098-13.252-1.8934-14.6129-1.024-1.7494 1.1686-1.841 4.2167-1.841 4.2167s-.2544 4.0477 1.0113 4.7265c2.6489 1.0393 5.1519 1.4566 7.3624 2.2208z"/>
  </g>
  <path fill="#fff" d="M152.7814 82.882c-.205-2.3808-.8783-8.2488-1.2127-13.072-.778-11.2214-1.8525-15.4081-4.5488-17.7259-4.1894-3.6011-9.7348-1.4841-11.9189 4.0808-2.5326 6.453.4984 37.0176 10.3117 36.1215 7.2182-.6591 7.9152-3.0576 7.3687-9.4044z"/>
</svg>
