<?xml version="1.0" encoding="UTF-8"?>
<svg viewBox="0 0 300 300" xml:space="preserve" xmlns="http://www.w3.org/2000/svg" xmlns:xlink="http://www.w3.org/1999/xlink">
  <defs>
    <linearGradient id="a">
      <stop stop-color="#fc9caa" offset="0"/>
      <stop stop-color="#fb7d9b" offset="1"/>
    </linearGradient>
    <linearGradient id="i" x1="88.992" x2="983.85" y1="79.928" y2="223.3" gradientTransform="matrix(.2775 0 0 .9947 .9146 0)" gradientUnits="userSpaceOnUse"><stop stop-color="#ff8975" offset="0"/><stop stop-color="#e9658b" offset="1"/></linearGradient>
    <linearGradient id="h" x1="196.72" x2="268.46" y1="92.516" y2="92.516" gradientTransform="translate(-19.215 8.0305)" gradientUnits="userSpaceOnUse" xlink:href="#a"/>
    <linearGradient id="b" x1="-74.718" x2="-12.552" y1="62.568" y2="62.568" gradientTransform="translate(76.077 80.31)" gradientUnits="userSpaceOnUse" xlink:href="#a"/>
    <radialGradient id="e" cx="133.09" cy="80.132" r="133.43" gradientTransform="matrix(-.4121 .8079 -1.0236 -.5222 250.62 47.219)" gradientUnits="userSpaceOnUse" xlink:href="#a"/>
    <radialGradient id="g" cx="133.09" cy="80.132" r="133.43" gradientTransform="matrix(-.4121 .8079 -1.0236 -.5222 247.5 48.97)" gradientUnits="userSpaceOnUse" xlink:href="#a"/>
    <radialGradient id="f" cx="133.09" cy="80.132" r="133.43" gradientTransform="matrix(-.4121 .8079 -1.0236 -.5222 250.62 47.219)" gradientUnits="userSpaceOnUse" xlink:href="#a"/>
  </defs>
  <path d="M0 0h300v300H0z" fill="url(#i)"/>
  <path transform="translate(40.53 21.38) scale(.8212)" d="m179.51 93.43c0-1.4233 11.303-11.897 18.761-17.385 8.4332-6.2051 22.44-14.116 24.993-14.116 5.63 0 19.164 37.24 22.622 62.245 0.9086 6.57 1.495 12.416 1.303 12.992-15.778-18.534-32.197-36.694-67.68-43.737z" fill="url(#h)" stroke="#fff" stroke-width="4"/>
  <path d="m203.2 101.9c-0.753-0.6778 6.4954-8.4082 10.913-11.66 4.5975-3.3845 4.9628-3.5118 6.3846-2.2252 2.8008 2.5347 9.5188 25.63 10.061 31.811-2.6915-0.3015-19.842-13.912-27.359-17.925z" fill="none" stroke="#fff" stroke-width="2.242"/>
  <path transform="translate(40.53 21.38) scale(.8212)" d="m15.411 171.55c-7.6147-12.494-12.051-40.907-12.051-54.242 0-10.229 0.7118-11.258 7.7852-11.257 12.225 3e-3 46.133 5.476 50.412 7.8115-16.881 16.636-31.818 36.558-42.574 63.549z" fill="url(#b)" stroke="#fff" stroke-width="4"/>
  <path transform="translate(40.53 21.38) scale(.8212)" d="m22.808 151.98c-2.1033-4.9744-5.2027-19.982-5.2027-24.812 0-2.6442 0.5592-3.9502 2.0278-4.7362 2.464-1.3187 28.553 2.7544 29.808 4.0159-5.6298 7.4032-15.566 21.832-23.894 32.01z" fill="url(#b)" stroke="#fff" stroke-width="2.7301"/>
  <path transform="translate(40.53 21.38) scale(.8212)" d="m253.38 150.26c-1.7503 0.034 1.0668 7.3383 1.0668 14.12 0 3.7863-0.7047 8.755-1.5915 11.742-1.7965 6.0514-9.148 18.548-10.726 19.524-0.5623 0.3475-1.1093-0.0758-1.1093 0.9917 0 2.679 7.2303 5.3173 10.687 1.5876 3.0321-3.2717 8.7116-18.412 10.825-27.993 1.3934-6.3162-0.0111-10.089-0.9844-12.438-1.0062-2.4293-6.3676-7.5687-8.1673-7.5339z" fill="url(#g)" stroke="#fff" stroke-width="4"/>
  <path transform="translate(40.53 21.38) scale(.8212)" d="m43.433 234.57c-11.192-7.7751-19.197-21.072-23.629-38.217-3.146-12.17-1.8467-21.159 5.1405-35.566 1.1987-2.4717 2.3987-4.8186 3.6176-7.0634 4.9607-9.1358 10.235-16.581 17.017-23.865 3.8825-4.17 8.2588-8.287 13.353-12.638 29.609-25.29 65.202-35.969 100.69-30.213 19.044 3.0889 43.229 11.598 58.535 21.982 8.7042 5.9052 20.058 16.693 26.588 24.855 7.1868 8.9827 9.2563 15.006 9.2563 26.941 0 11.008-1.868 18.982-6.381 27.235-4.4864 8.2048-8.0942 10.499-16.517 10.503-8.6839 4e-3 -27.003 1.6462-40.102 3.5938-21.018 3.125-60.033 12.381-78 18.506-39.82 13.573-43.989 14.729-55.628 15.419-9.3807 0.5564-11.215-0.069-13.943-1.4723z" fill="url(#f)" stroke="#fff" stroke-width="4"/>
  <path transform="translate(40.53 21.38) scale(.8212)" d="m18.439 190.55c-0.4208 0-5.0213 10.25-7.419 16.712-7.2334 19.496-6.0817 24.936 7.371 34.84 3.8475 2.8323 7.032 4.4102 8.9024 4.4102 2.9384 0 6.6153-1.8624 11.141-4.1387 7.3132-3.6787 9.4942-6.0454 7.5139-6.3613-12.521-1.9973-22.791-21.078-26.815-33.59-1.2223-3.801-0.2734-11.872-0.6943-11.872z" fill="url(#e)" stroke="#fff" stroke-width="4"/>
  <path d="m154.06 161.86c-2.7117 2.6548-8.063 5.0214-11.603 4.6789l-1.1567 4.4787-0.0121 0.044c-0.0588 0.1971-5.0323 17.253 2.2474 22.044 6.2205 3.7496 14.622-5.2658 17.924-11.859 2.8632-5.8242 3.8162-11.974 3.2465-17.252 0 0-1.9735 0.7296-4.2767 0.3843-1.6736-0.251-4.2078-1.133-6.3699-2.5176z" fill="#fff"/>
  <path d="m145.17 190.39c-5.5366-3.6438-1.6747-16.718-1.6873-16.673 5.5492 1.1631 11.179 4.3642 14.446 8.4915-1.8075 3.4328-8.0633 11.012-12.759 8.1814z" fill="#ed5073"/>
  <path d="m141.12 159.21s-3.0363 4.183 0.9954 6.7952c2.1344 1.3829 7.0861 0.6734 11.619-3.6656 3.8688 2.8138 7.5895 3.4198 11.056 1.2575 5.3165-3.3164 1.7087-7.582 1.7087-7.582" fill="none" stroke="#fff" stroke-linecap="round" stroke-linejoin="round" stroke-width="3.415"/>
  <path d="m143.9758 171.4666.8926-3.4531c2.7032.2615 6.7894-1.546 8.8601-3.5732 1.651 1.0573 3.5862 1.7319 4.8642 1.9235 1.7587.2637 3.265-.2935 3.265-.2935.4351 4.0304-.2917 8.7269-2.8276 14.137-4.2844-4.5554-8.1864-6.9282-15.0543-8.7407z" fill="#db647e"/>
  <g fill="#fff">
    <path d="M104.8117 169.955c3.2487-.8014 7.1721-1.965 14.4442-2.1154 10.9383-.041 13.4927.1823 12.9898-6.7741 0 0-.5932-6.512-4.0774-3.4137-7.7008-.3869-15.059-.6703-22.3082 1.0737-7.5787 1.8232-11.5505 3.3694-12.3126 4.7933-.9547 1.8748.4912 4.6548.4912 4.6548s1.722 3.5783 3.158 3.5514c2.8189-.3889 5.344-1.21 7.615-1.77z"/>
    <path d="m103.48 156.03c3.3373 1.1225 7.7397 1.8975 13.318 4.919 10.088 5.6081 12.141 7.0152 15.104 0.7013 0 0 0.7208-3.6345-2.1934-5.9914-3.2647-2.7774-8.6109-7.1766-18.148-9.7682-7.8082-1.8097-13.253-1.8933-14.614-1.0239-1.7495 1.1685-1.8411 4.2164-1.8411 4.2164s-0.2544 4.0475 1.0113 4.7262c2.649 1.0393 5.1522 1.4565 7.3628 2.2206z"/>
  </g>
  <path d="m194.43 153.48c-0.205-2.3806-0.8784-8.2482-1.2128-13.071-0.7781-11.22-1.8526-15.407-4.549-17.725-4.1896-3.6009-9.7353-1.484-11.92 4.0806-2.5328 6.4525 0.4984 37.015 10.312 36.119 7.2186-0.6591 7.9156-3.0574 7.3692-9.4038z" fill="#fff"/>
</svg>
