<?xml version="1.0" encoding="UTF-8"?>
<svg width="300" height="300" version="1.2" baseProfile="tiny-ps" viewBox="0 0 300 300" xml:space="preserve" xmlns="http://www.w3.org/2000/svg" xmlns:xlink="http://www.w3.org/1999/xlink"><title>Flirtual</title><defs><linearGradient id="linearGradient73442"><stop stop-color="#fc9caa" offset="0"/><stop stop-color="#fb7d9b" offset="1"/></linearGradient><linearGradient id="linearGradient1477" x1="88.992" x2="983.85" y1="79.928" y2="223.3" gradientTransform="matrix(.2775 0 0 .99475 .91463 0)" gradientUnits="userSpaceOnUse"><stop stop-color="#ff8975" offset="0"/><stop stop-color="#e9658b" offset="1"/></linearGradient><radialGradient id="radialGradient71479-6-3" cx="133.09" cy="80.132" r="133.43" gradientTransform="matrix(-.33845 .66344 -.84058 -.42881 246.34 60.157)" gradientUnits="userSpaceOnUse" xlink:href="#linearGradient73442"/><radialGradient id="radialGradient1149-7" cx="133.09" cy="80.132" r="133.43" gradientTransform="matrix(-.33845 .66344 -.84058 -.42881 243.78 61.595)" gradientUnits="userSpaceOnUse" xlink:href="#linearGradient73442"/><linearGradient id="linearGradient9911-9" x1="196.72" x2="268.46" y1="92.516" y2="92.516" gradientTransform="matrix(.82121 0 0 .82121 24.751 27.975)" gradientUnits="userSpaceOnUse" xlink:href="#linearGradient73442"/><linearGradient id="linearGradient9915-0" x1="-74.717" x2="-12.552" y1="62.568" y2="62.568" gradientTransform="matrix(.82121 0 0 .82121 103.01 87.331)" gradientUnits="userSpaceOnUse" xlink:href="#linearGradient73442"/><radialGradient id="radialGradient9919-3" cx="133.09" cy="80.132" r="133.43" gradientTransform="matrix(-.33845 .66344 -.84058 -.42881 246.34 60.156)" gradientUnits="userSpaceOnUse" xlink:href="#linearGradient73442"/></defs><rect width="300" height="300" fill="url(#linearGradient1477)"/><path d="m187.94 98.105c0-1.1688 9.2817-9.7695 15.407-14.276 6.9254-5.0957 18.427-11.592 20.524-11.592 4.6234 0 15.738 30.581 18.578 51.116 0.74612 5.3954 1.2277 10.197 1.0701 10.669-12.957-15.22-26.44-30.133-55.579-35.917z" fill="url(#linearGradient9911-9)" stroke="#fff" stroke-width="3.2848"/><path d="m203.2 101.9c-0.75297-0.67785 6.4954-8.4083 10.913-11.661 4.5976-3.3845 4.9629-3.5119 6.3846-2.2252 2.8008 2.5347 9.5188 25.63 10.061 31.811-2.6915-0.30156-19.842-13.913-27.359-17.925z" fill="none" stroke="#fff" stroke-width="2.242"/><g><g stroke="#fff"><path d="m53.186 162.26c-6.2533-10.26-9.8962-33.593-9.8962-44.544 0-8.4002 0.58453-9.2454 6.3932-9.2442 10.04 2e-3 37.884 4.4969 41.399 6.4149-13.863 13.661-26.129 30.022-34.962 52.187z" fill="url(#linearGradient9915-0)" stroke-width="3.2848"/><path d="m59.261 146.18c-1.7273-4.085-4.2725-16.41-4.2725-20.376 0-2.1714 0.4592-3.2439 1.6653-3.8894 2.0234-1.0829 23.448 2.262 24.479 3.2978-4.6233 6.0795-12.783 17.928-19.622 26.286z" fill="url(#linearGradient9915-0)" stroke-width="2.242"/><g stroke-width="3.2848"><path d="m248.61 144.77c-1.4374 0.0278 0.87599 6.0262 0.87599 11.595 0 3.1094-0.57868 7.1896-1.307 9.6428-1.4753 4.9695-7.5124 15.232-8.8086 16.033-0.46177 0.28539-0.91095-0.0623-0.91095 0.81446 0 2.1999 5.9376 4.3665 8.7761 1.3037 2.49-2.6867 7.154-15.12 8.8898-22.988 1.1443-5.1869-9e-3 -8.2849-0.80837-10.214-0.82633-1.995-5.2291-6.2155-6.7071-6.1869z" fill="url(#radialGradient1149-7)"/><path d="m76.198 214.01c-9.1912-6.3849-15.765-17.305-19.405-31.384-2.5835-9.9938-1.5165-17.376 4.2214-29.207 0.98439-2.0298 1.9698-3.957 2.9708-5.8006 4.0737-7.5023 8.4053-13.616 13.974-19.598 3.1883-3.4244 6.7821-6.8053 10.965-10.378 24.315-20.768 53.545-29.538 82.69-24.811 15.639 2.5366 35.5 9.5246 48.069 18.052 7.148 4.8494 16.472 13.708 21.834 20.411 5.9018 7.3766 7.6013 12.323 7.6013 22.124 0 9.0402-1.5341 15.588-5.2402 22.366-3.6842 6.7378-6.6469 8.6219-13.564 8.6255-7.1313 3e-3 -22.175 1.3518-32.932 2.9512-17.26 2.5662-49.299 10.168-64.054 15.197-32.7 11.146-36.124 12.095-45.682 12.662-7.7035 0.45687-9.21-0.0567-11.45-1.2091z" fill="url(#radialGradient9919-3)"/><path d="m55.672 177.86c-0.3456 0-4.1236 8.4171-6.0926 13.724-5.9401 16.01-4.9943 20.478 6.0532 28.611 3.1595 2.3259 5.7747 3.6216 7.3107 3.6216 2.413 0 5.4325-1.5294 9.1487-3.3987 6.0056-3.021 7.7967-4.9645 6.1704-5.2239-10.283-1.6402-18.716-17.309-22.02-27.584-1.0037-3.1215-0.2245-9.7496-0.57012-9.7496z" fill="url(#radialGradient71479-6-3)"/></g></g><path d="m154.06 161.86c-2.7117 2.6547-8.063 5.0214-11.603 4.6788l-1.1567 4.4787-0.0121 0.044c-0.0588 0.19705-5.0323 17.253 2.2474 22.043 6.2205 3.7495 14.622-5.2658 17.925-11.859 2.8632-5.8242 3.8162-11.974 3.2464-17.252 0 0-1.9734 0.72961-4.2766 0.38422-1.6737-0.25098-4.2079-1.1329-6.3699-2.5175z" fill="#fff" stroke-width=".97245"/><path d="m145.17 190.39c-5.5366-3.6437-1.6747-16.718-1.6873-16.673 5.5491 1.1631 11.179 4.3642 14.446 8.4914-1.8076 3.4329-8.0633 11.012-12.759 8.1814z" fill="#ed5073" stroke-width=".73405"/></g><path d="m141.12 159.21s-3.0364 4.1829 0.99537 6.7952c2.1343 1.3829 7.0861 0.67344 11.619-3.6656 3.8688 2.8137 7.5895 3.4198 11.056 1.2574 5.3165-3.3164 1.7087-7.582 1.7087-7.582" fill="none" stroke="#fff" stroke-linecap="round" stroke-linejoin="round" stroke-width="3.415"/><path d="m143.98 171.47 0.89259-3.4531c2.7032 0.26154 6.7895-1.546 8.8601-3.5732 1.6509 1.0573 3.5862 1.7318 4.8642 1.9235 1.7587 0.26373 3.265-0.29353 3.265-0.29353 0.43506 4.0304-0.29176 8.7269-2.8277 14.137-4.2844-4.5554-8.1864-6.9282-15.054-8.7407z" fill="#db647e" stroke-width=".74373"/><g fill="#fff"><path d="m104.81 169.95c3.2487-0.80134 7.1722-1.9649 14.444-2.1154 10.938-0.0411 13.493 0.18231 12.99-6.7741 0 0-0.59322-6.5121-4.0774-3.4137-7.7007-0.38682-15.059-0.67026-22.308 1.0737-7.5787 1.8232-11.551 3.3694-12.313 4.7933-0.95469 1.8748 0.4912 4.6548 0.4912 4.6548s1.7219 3.5783 3.158 3.5514c2.8189-0.38887 5.3441-1.2099 7.615-1.7701z" stroke-width=".8212"/><path d="m103.48 156.03c3.3373 1.1224 7.7397 1.8975 13.318 4.9189 10.088 5.6082 12.141 7.0152 15.104 0.70134 0 0 0.72085-3.6345-2.1933-5.9914-3.2648-2.7774-8.6109-7.1766-18.148-9.7682-7.8083-1.8097-13.253-1.8933-14.614-1.0239-1.7495 1.1685-1.8411 4.2164-1.8411 4.2164s-0.25441 4.0474 1.0114 4.7262c2.649 1.0392 5.1521 1.4565 7.3628 2.2206z" stroke-width=".8212"/><path d="m194.43 153.48c-0.20498-2.3806-0.87837-8.2482-1.2128-13.071-0.77807-11.221-1.8525-15.407-4.549-17.725-4.1896-3.6009-9.7353-1.484-11.919 4.0805-2.5328 6.4526 0.49841 37.015 10.312 36.119 7.2186-0.65909 7.9156-3.0574 7.3691-9.4038z" stroke-width=".66593"/></g></svg>
