<?xml version="1.0" standalone="no"?>
<!DOCTYPE svg PUBLIC "-//W3C//DTD SVG 20010904//EN"
 "http://www.w3.org/TR/2001/REC-SVG-20010904/DTD/svg10.dtd">
<svg version="1.0" xmlns="http://www.w3.org/2000/svg"
 width="868.000000pt" height="868.000000pt" viewBox="0 0 868.000000 868.000000"
 preserveAspectRatio="xMidYMid meet">
<metadata>
Created by potrace 1.14, written by Peter Selinger 2001-2017
</metadata>
<g transform="translate(0.000000,868.000000) scale(0.100000,-0.100000)"
fill="#000000" stroke="none">
<path d="M7210 7276 c-196 -86 -571 -318 -772 -477 -153 -122 -436 -377 -426
-384 2 -1 53 -19 113 -40 61 -21 160 -58 220 -82 l110 -43 20 27 c105 146 319
346 498 467 79 54 105 66 137 66 79 0 136 -83 228 -331 89 -239 235 -753 257
-904 7 -47 14 -56 109 -146 56 -53 146 -147 201 -208 59 -66 101 -106 103 -98
5 22 -35 301 -64 445 -134 679 -437 1528 -612 1715 -14 15 -31 27 -36 27 -6 0
-45 -15 -86 -34z"/>
<path d="M7019 6679 c-41 -28 -104 -76 -141 -105 -82 -68 -338 -330 -338 -347
1 -6 89 -55 198 -108 284 -139 436 -235 660 -416 56 -46 102 -79 102 -73 0 45
-103 419 -177 645 -101 309 -171 455 -216 455 -7 0 -47 -23 -88 -51z"/>
<path d="M4365 6529 c-757 -43 -1513 -329 -2180 -824 -259 -192 -609 -515
-797 -737 -178 -209 -341 -456 -487 -738 -276 -531 -337 -837 -245 -1220 122
-513 361 -943 661 -1191 105 -86 149 -107 247 -118 80 -9 362 2 486 19 216 30
501 113 1215 355 751 254 1090 349 1901 534 867 198 1609 302 2324 327 96 3
200 10 230 16 149 28 241 121 364 367 127 253 172 490 163 859 -8 311 -45 446
-180 647 -154 231 -531 616 -827 846 -455 354 -1216 663 -1990 808 -116 22
-292 42 -455 51 -187 11 -237 11 -430 -1z m1422 -1124 c59 -18 133 -79 167
-138 57 -99 85 -250 116 -627 11 -135 27 -309 35 -387 41 -389 11 -461 -209
-499 -87 -15 -120 -12 -177 17 -120 60 -233 318 -294 669 -22 126 -28 196 -32
380 -3 144 -1 247 6 285 32 172 167 311 307 314 17 1 53 -6 81 -14z m-3127
-961 c249 -46 470 -134 665 -266 150 -101 236 -177 264 -232 51 -103 53 -269
3 -327 -45 -54 -75 -60 -327 -70 -419 -15 -465 -21 -771 -99 -264 -67 -273
-68 -312 -35 -38 32 -98 149 -107 208 -11 75 11 109 97 151 86 42 257 94 432
133 69 15 123 30 118 34 -7 7 -173 58 -407 125 -68 20 -129 43 -140 55 -16 16
-21 36 -24 110 -5 143 27 221 99 239 57 15 256 2 410 -26z m2394 -395 c59 -70
75 -178 38 -261 -20 -45 -94 -120 -137 -140 -24 -11 -25 -15 -25 -97 0 -323
-142 -647 -386 -881 -120 -114 -213 -163 -318 -168 -62 -3 -78 0 -125 25 -67
35 -112 97 -144 197 -19 62 -22 92 -21 236 0 176 10 247 64 460 27 106 28 116
13 125 -46 28 -104 91 -119 131 -23 61 -15 147 22 214 30 55 59 70 99 52 36
-17 42 -56 16 -107 -41 -82 -18 -153 58 -176 76 -23 217 28 319 116 61 51 96
57 142 25 106 -75 233 -95 320 -51 54 28 87 57 106 93 20 38 18 58 -11 112
-30 57 -31 80 -5 106 29 29 64 25 94 -11z"/>
<path d="M4466 3661 c-44 -48 -222 -121 -297 -121 l-37 0 -16 -65 c-9 -35 -16
-69 -16 -74 0 -6 32 -20 71 -31 178 -53 329 -139 466 -264 l71 -66 32 77 c61
146 103 375 86 466 l-6 34 -47 -9 c-59 -13 -133 1 -218 42 -34 16 -65 30 -67
30 -3 0 -13 -9 -22 -19z"/>
<path d="M4076 3301 c-12 -18 -37 -160 -46 -256 -33 -338 111 -513 330 -404
40 20 90 59 139 108 77 76 161 188 161 214 0 7 -30 43 -67 79 -116 110 -240
184 -402 238 -97 33 -107 34 -115 21z"/>
<path d="M225 5855 c-5 -2 -22 -6 -36 -9 -44 -9 -52 -45 -57 -231 -14 -589
180 -1499 392 -1834 l28 -44 44 118 c24 65 68 170 99 232 l54 114 -48 117
c-59 140 -90 242 -130 422 -74 331 -92 531 -56 605 32 63 73 85 164 85 146 0
512 -47 741 -96 l114 -24 41 37 c90 84 285 278 285 285 0 26 -616 137 -1040
187 -276 33 -553 50 -595 36z"/>
<path d="M614 5342 c-60 -39 -36 -300 61 -687 39 -155 107 -345 124 -345 3 1
33 51 66 112 126 233 338 531 518 726 42 46 77 87 77 92 0 4 -15 10 -32 13
-437 77 -777 114 -814 89z"/>
<path d="M8374 4243 c3 -54 9 -144 12 -199 12 -184 -27 -404 -101 -579 -98
-233 -179 -375 -291 -512 l-27 -33 36 -15 c44 -18 123 -19 157 -2 79 39 255
451 355 832 48 179 45 341 -8 453 -21 46 -112 152 -129 152 -7 0 -9 -33 -4
-97z"/>
<path d="M422 2683 c-195 -489 -228 -694 -141 -873 78 -160 451 -450 578 -450
22 0 62 7 88 16 106 35 423 198 423 217 0 4 -25 19 -56 33 -200 88 -405 309
-577 621 -109 198 -227 496 -227 576 0 20 -4 37 -9 37 -5 0 -40 -80 -79 -177z"/>
</g>
</svg>
