<svg xmlns="http://www.w3.org/2000/svg" version="1.0" viewBox="0 0 868 868">
  <path d="M721 140.4c-19.6 8.6-57.1 31.8-77.2 47.7-15.3 12.2-43.6 37.7-42.6 38.4.2.1 5.3 1.9 11.3 4 6.1 2.1 16 5.8 22 8.2l11 4.3 2-2.7c10.5-14.6 31.9-34.6 49.8-46.7 7.9-5.4 10.5-6.6 13.7-6.6 7.9 0 13.6 8.3 22.8 33.1 8.9 23.9 23.5 75.3 25.7 90.4.7 4.7 1.4 5.6 10.9 14.6 5.6 5.3 14.6 14.7 20.1 20.8 5.9 6.6 10.1 10.6 10.3 9.8.5-2.2-3.5-30.1-6.4-44.5-13.4-67.9-43.7-152.8-61.2-171.5-1.4-1.5-3.1-2.7-3.6-2.7-.6 0-4.5 1.5-8.6 3.4z"/>
  <path d="M701.9 200.1c-4.1 2.8-10.4 7.6-14.1 10.5-8.2 6.8-33.8 33-33.8 34.7.1.6 8.9 5.5 19.8 10.8 28.4 13.9 43.6 23.5 66 41.6 5.6 4.6 10.2 7.9 10.2 7.3 0-4.5-10.3-41.9-17.7-64.5-10.1-30.9-17.1-45.5-21.6-45.5-.7 0-4.7 2.3-8.8 5.1zm-265.4 15c-75.7 4.3-151.3 32.9-218 82.4-25.9 19.2-60.9 51.5-79.7 73.7-17.8 20.9-34.1 45.6-48.7 73.8-27.6 53.1-33.7 83.7-24.5 122 12.2 51.3 36.1 94.3 66.1 119.1 10.5 8.6 14.9 10.7 24.7 11.8 8 .9 36.2-.2 48.6-1.9 21.6-3 50.1-11.3 121.5-35.5 75.1-25.4 109-34.9 190.1-53.4 86.7-19.8 160.9-30.2 232.4-32.7 9.6-.3 20-1 23-1.6 14.9-2.8 24.1-12.1 36.4-36.7 12.7-25.3 17.2-49 16.3-85.9-.8-31.1-4.5-44.6-18-64.7-15.4-23.1-53.1-61.6-82.7-84.6-45.5-35.4-121.6-66.3-199-80.8-11.6-2.2-29.2-4.2-45.5-5.1-18.7-1.1-23.7-1.1-43 .1zm142.2 112.4c5.9 1.8 13.3 7.9 16.7 13.8 5.7 9.9 8.5 25 11.6 62.7 1.1 13.5 2.7 30.9 3.5 38.7 4.1 38.9 1.1 46.1-20.9 49.9-8.7 1.5-12 1.2-17.7-1.7-12-6-23.3-31.8-29.4-66.9-2.2-12.6-2.8-19.6-3.2-38-.3-14.4-.1-24.7.6-28.5 3.2-17.2 16.7-31.1 30.7-31.4 1.7-.1 5.3.6 8.1 1.4zM266 423.6c24.9 4.6 47 13.4 66.5 26.6 15 10.1 23.6 17.7 26.4 23.2 5.1 10.3 5.3 26.9.3 32.7-4.5 5.4-7.5 6-32.7 7-41.9 1.5-46.5 2.1-77.1 9.9-26.4 6.7-27.3 6.8-31.2 3.5-3.8-3.2-9.8-14.9-10.7-20.8-1.1-7.5 1.1-10.9 9.7-15.1 8.6-4.2 25.7-9.4 43.2-13.3 6.9-1.5 12.3-3 11.8-3.4-.7-.7-17.3-5.8-40.7-12.5-6.8-2-12.9-4.3-14-5.5-1.6-1.6-2.1-3.6-2.4-11-.5-14.3 2.7-22.1 9.9-23.9 5.7-1.5 25.6-.2 41 2.6zm239.4 39.5c5.9 7 7.5 17.8 3.8 26.1-2 4.5-9.4 12-13.7 14-2.4 1.1-2.5 1.5-2.5 9.7 0 32.3-14.2 64.7-38.6 88.1-12 11.4-21.3 16.3-31.8 16.8-6.2.3-7.8 0-12.5-2.5-6.7-3.5-11.2-9.7-14.4-19.7-1.9-6.2-2.2-9.2-2.1-23.6 0-17.6 1-24.7 6.4-46 2.7-10.6 2.8-11.6 1.3-12.5-4.6-2.8-10.4-9.1-11.9-13.1-2.3-6.1-1.5-14.7 2.2-21.4 3-5.5 5.9-7 9.9-5.2 3.6 1.7 4.2 5.6 1.6 10.7-4.1 8.2-1.8 15.3 5.8 17.6 7.6 2.3 21.7-2.8 31.9-11.6 6.1-5.1 9.6-5.7 14.2-2.5 10.6 7.5 23.3 9.5 32 5.1 5.4-2.8 8.7-5.7 10.6-9.3 2-3.8 1.8-5.8-1.1-11.2-3-5.7-3.1-8-.5-10.6 2.9-2.9 6.4-2.5 9.4 1.1z"/>
  <path d="M446.6 501.9c-4.4 4.8-22.2 12.1-29.7 12.1h-3.7l-1.6 6.5c-.9 3.5-1.6 6.9-1.6 7.4 0 .6 3.2 2 7.1 3.1 17.8 5.3 32.9 13.9 46.6 26.4l7.1 6.6 3.2-7.7c6.1-14.6 10.3-37.5 8.6-46.6l-.6-3.4-4.7.9c-5.9 1.3-13.3-.1-21.8-4.2-3.4-1.6-6.5-3-6.7-3-.3 0-1.3.9-2.2 1.9zm-39 36c-1.2 1.8-3.7 16-4.6 25.6-3.3 33.8 11.1 51.3 33 40.4 4-2 9-5.9 13.9-10.8 7.7-7.6 16.1-18.8 16.1-21.4 0-.7-3-4.3-6.7-7.9-11.6-11-24-18.4-40.2-23.8-9.7-3.3-10.7-3.4-11.5-2.1zM22.5 282.5c-.5.2-2.2.6-3.6.9-4.4.9-5.2 4.5-5.7 23.1-1.4 58.9 18 149.9 39.2 183.4l2.8 4.4 4.4-11.8c2.4-6.5 6.8-17 9.9-23.2l5.4-11.4-4.8-11.7c-5.9-14-9-24.2-13-42.2-7.4-33.1-9.2-53.1-5.6-60.5 3.2-6.3 7.3-8.5 16.4-8.5 14.6 0 51.2 4.7 74.1 9.6l11.4 2.4 4.1-3.7c9-8.4 28.5-27.8 28.5-28.5 0-2.6-61.6-13.7-104-18.7-27.6-3.3-55.3-5-59.5-3.6z"/>
  <path d="M61.4 333.8c-6 3.9-3.6 30 6.1 68.7C71.4 418 78.2 437 79.9 437c.3-.1 3.3-5.1 6.6-11.2 12.6-23.3 33.8-53.1 51.8-72.6 4.2-4.6 7.7-8.7 7.7-9.2 0-.4-1.5-1-3.2-1.3-43.7-7.7-77.7-11.4-81.4-8.9zm776 109.9c.3 5.4.9 14.4 1.2 19.9 1.2 18.4-2.7 40.4-10.1 57.9-9.8 23.3-17.9 37.5-29.1 51.2l-2.7 3.3 3.6 1.5c4.4 1.8 12.3 1.9 15.7.2 7.9-3.9 25.5-45.1 35.5-83.2 4.8-17.9 4.5-34.1-.8-45.3-2.1-4.6-11.2-15.2-12.9-15.2-.7 0-.9 3.3-.4 9.7zm-795.2 156c-19.5 48.9-22.8 69.4-14.1 87.3 7.8 16 45.1 45 57.8 45 2.2 0 6.2-.7 8.8-1.6 10.6-3.5 42.3-19.8 42.3-21.7 0-.4-2.5-1.9-5.6-3.3-20-8.8-40.5-30.9-57.7-62.1C62.8 623.5 51 593.7 51 585.7c0-2-.4-3.7-.9-3.7s-4 8-7.9 17.7z"/>
</svg>
